<mxfile host="app.diagrams.net" agent="Mozilla/5.0 (Windows NT 10.0; Win64; x64) AppleWebKit/537.36 (KHTML, like Gecko) Chrome/136.0.0.0 Safari/537.36" version="26.0.11">
  <diagram name="Page-1" id="lC3oQyE_hDkb9g5hfYSK">
    <mxGraphModel dx="1050" dy="557" grid="1" gridSize="10" guides="1" tooltips="1" connect="1" arrows="1" fold="1" page="1" pageScale="1" pageWidth="827" pageHeight="1169" math="0" shadow="0">
      <root>
        <mxCell id="0" />
        <mxCell id="1" parent="0" />
        <mxCell id="I_d5uRJIazAEXVuabp4f-15" value="" style="rounded=0;whiteSpace=wrap;html=1;" vertex="1" parent="1">
          <mxGeometry x="30" y="46" width="200" height="294.01" as="geometry" />
        </mxCell>
        <mxCell id="I_d5uRJIazAEXVuabp4f-23" style="edgeStyle=orthogonalEdgeStyle;rounded=0;orthogonalLoop=1;jettySize=auto;html=1;entryX=0;entryY=0.5;entryDx=0;entryDy=0;" edge="1" parent="1" source="I_d5uRJIazAEXVuabp4f-22" target="I_d5uRJIazAEXVuabp4f-4">
          <mxGeometry relative="1" as="geometry" />
        </mxCell>
        <mxCell id="I_d5uRJIazAEXVuabp4f-22" value="" style="rounded=0;whiteSpace=wrap;html=1;dashed=1;" vertex="1" parent="1">
          <mxGeometry x="48" y="60" width="170" height="125" as="geometry" />
        </mxCell>
        <mxCell id="I_d5uRJIazAEXVuabp4f-9" value="" style="rounded=0;whiteSpace=wrap;html=1;" vertex="1" parent="1">
          <mxGeometry x="316" y="227.99" width="200" height="294.01" as="geometry" />
        </mxCell>
        <mxCell id="I_d5uRJIazAEXVuabp4f-46" style="edgeStyle=orthogonalEdgeStyle;rounded=0;orthogonalLoop=1;jettySize=auto;html=1;entryX=1;entryY=0.5;entryDx=0;entryDy=0;exitX=0.5;exitY=1;exitDx=0;exitDy=0;" edge="1" parent="1" source="I_d5uRJIazAEXVuabp4f-3" target="I_d5uRJIazAEXVuabp4f-6">
          <mxGeometry relative="1" as="geometry">
            <Array as="points">
              <mxPoint x="652" y="304" />
            </Array>
          </mxGeometry>
        </mxCell>
        <mxCell id="I_d5uRJIazAEXVuabp4f-3" value="" style="shape=image;verticalLabelPosition=bottom;labelBackgroundColor=default;verticalAlign=top;aspect=fixed;imageAspect=0;image=data:image/png,iVBORw0KGgoAAAANSUhEUgAAASsAAACoCAMAAACPKThEAAAA8FBMVEX///8eiP///v////15uP/4//8eiP4Vhf9couf8//8Mf/O13vb3///19vjz///w8vS5vMDY2d7v//+Iv/BurPNWXWXk5+rT19leZW2byfIAffQAgPtKUlyvtLnAw8ZPWF+12fieoaXn+/+Dh40+R1BmbXRzd38nh+/W8P3h+P9yru2l0PU5jvDD4vsggvFFlOt+uPIkh/KTxfTU6fx8g4jKzdGmqa1ip/dQme601fcIe+ZGnfg8kvGKw/DF6vuIu/OY2PhYm+TZ7PqJue/C3viq0Pmq2Pjn8/2AuPl1s/7N4vmLkpc2PUmSmJ8rM0BSV2JFKDXEAAARVklEQVR4nO1dCVviTBIOidAmcggCShLlJty3gvOxsDqjonyu///fbFV1AiGEGXefHWEz/T4zDLk7L1XV1VXVPZIkICAgICAgICAgICAgICBwVFCcPwK/RLx+1noatp7nJRW2ZPnQ7TlaqPX+X11N0wGaNWmVDt2e40X4rKcZLBQJcTC926wfuk1HCVlqpDVGHDFmMMbpslphYbs8AD7OLBZBYbIemv1Fv9nrEl36g1BEDxSppaEcaZNCI4pGXU095to6kjUtScLAuyBLOaRKe9iyT+GWBbLF2o1DNesIAQpY0MCkd4dRz+7GRI+E2EP8UC07PijSHAVoUOAbG6hKvKlFInpTFfbdgToFqrpn8GW9R0LW4DPaNEA3zw7YuCNDC4y4/kwMNVoXuYZE1py4kuJTFom0RWdoo9RmIZaWFFC0edtgRju3NlCwq94FIoeHbN8xAd0Fq4FcNcjHCum9s7U2KtLQgL4wJVxS1Du0VsYFjZPvdegOga2Ilt44CiULLFbhcC08JjS+ARfcscoBV3/N0H9g2kWJRAn+Lg1UUQHgoqCHWA90DnQQPFLjH6V+F8x5SJ8VVDiKRgxPED4WYgFi0yfLTlyBNtYfdBrwoBsPbKESdkXEAaCespD2zMd8wBUDrqTovWUgWwNyrKITFtI7B23kcUCJPrBQdw5c2Tp4QbtTFxhnYBY5Vmkw/vcHbeWRIDUlDfNwBYo4AVdCI3EC4248HbCJR4NUz5crGCQOHF+hzwRXBBjEoA4CVQ5XZOYbafDXQ9/IpKdZROggIoy2HW24W65SQwqLGk2K+4G90n4ctpVHAUVtAhM43ttwpZ71uNPQL6GIxWdwxujQDT0KtMC/mkgOV+AzzCc69oH6w5yf0ABtbJfEeBBQBxmyUvQ1x8AtRfWLhAyrRa66ImPIhj2ED9rGY0HcCkX0exrOPIEHGmH4d3Bhh6xkOQzGXwRlCLK0AGmaRFEHR5ihiGDyZq6SSCE6sPObyE8gVB7NaxE3FxiUgVGzS+NSU4oEiviVRAEs6Akx2Cdhmms2aA+3IsZDPYL+l6CKAzq6COvxeFW4tG3FMRvG+pKsCLI4ctAVaqfxbT4UtGAdCyyYJVITDmSe2TKmOwZcbWE5yEBooAtKqmdgBKawtVNK9TGcTGb/QA07SqQe0F3QTzspyuCA9oUbQwv3dVuHbtvRIZ7W0QfVe/37zqg+6uROBwbmKLoi57yLKIxtsADLMDSAbvDyq6mwVb4YTXUWcoEZ3cV/l75RoL8IetFWJ2117epHpnV7Oa+vgE6F8klPK+hcgVvaucDqhvZk2ar7yZSq+uzcPet/3KqjBIrMKQvpOb+DjUJ/0ptNgUVfLmS6PD4fpqezaXrYCX72VcGYMlviV3lLihp9S2cMq5T1QXrudyX8jbZmGpwF0LReK+gxL+IqNIuTfd7Ypniui3XckQjFbJje9B32dGbu3kHv+VEaIHCuNHxLl3WONzFYw5ih64ZBrsXugEiSnqljwJO4y8F4WWVwEUWuWFp1cxV/wCGQ0VsUOqPCcKrZ5cmerq6FIyJjkH7qzDtPaXJltedAd4gkV5Qx3LwkjAvBg2/xoLwU7cyQrGlq+8IOJhT1Zj1Mpitcx4EAz/4HFpwr1nMxUUCqelzp6M1TadhjLLauS1nuwSPauRaGxQJdaopcoUFqhp2AewrFaP3OZO/jaVDK7lbOcGFEqEDXPgsvfUZGLwIsWMAV9XZaM26/5ZNOMSwH1DemZiAzTbdLAWKlX3juNYQruwEWLJKrAXgHWpq/JdaTsr5zWFHCw0lLJZkZrPtCheq+3frWOV2USC/9/dpggOob/tkDwpgF1lxRGgMQDpsVVVWiTYPpZ5S4Nwrrq9QJbK5ZkcHEMSMNgsV4Tjug4LUgjR4jbxKGKmdGhPXWLni4r/MMWZ/xGkCOlMWwMsnxXc8G2FFKlHCcBXewY9fNlE41jP0ZmgX6SGOe++kixSPzmPPBktxQO70GmLh2SpHq6VOwbGfogXULklKauTU1cHBqjKKtLg1qSL6GkvTYZcYk9V1HPwCrsjo6TWF1AGeB8IUfDGbN5wN0QzFMj4nYAJflruuxpNJFW2PkQCBXb8jNAD2tNpUnI1eRiDs22AsrcVBdNhjgXET0tOT4n8IVRmGWvQG442zB6/9CZPG5+/BDp6GfYSPEDRN6CTi81ocqZYJ6oIN/BFc8D53jM5ukEpn7UHuOFlyh+qNJwQEMmyOYclUXOCjkxW+A+sDJ/gcSbrkiYF9m4dylxswABZvbGWkset+kw8I9uwY+3McJhxd2v1mAjWlww1g7XKXa4MQTK42pZiEfKG9YXOMURsqyLIE8sTSyoi6s7oWKrphKXhdbeJ8QHOxwhZ5UCIbSMgaIX3AHDAmxtoZNo5vQ+hwLkzpIo1qvq/boaA69phbggN8uVyBCMDp0SOHuJs451N0ZaRQhbpo2eZ5Gm7vtn039/N9hlyu1r0c8w7oO+eVbDvkc+0Va+cIhJvWAHmmH62ggscsVD8pomxB7nBa+GLiVS8WAYCRkzEaO/Kkd7Dd3Qg+Bgg9XYIzgtY32sB5X1XCpNUVvaid+wAPN3WYnBSelOk0Y5zAj2Gs77HIFGtRp0zQKrd3rtbuUd+juhlp4rQ3TrN60Z+nEZzq1c1aQsMsVep71mUGLPa0XMCoAh16LjdmekOskDBcGGn46CIheWOvcH+umS/7lM2c9jQaQEZwx3etIQe0AbezhCjyA4fQblht9my1whOfPQvwsbWm6rmlWuhBwoZL2ccUFpDTqdOYN3tP5coW+Qbw+74zqUb/DQcNeufocAupJ+UNw9XlEBVefxh65stcA+RVcHV/A+0BE+NTYw1V41Fqk08scVqHtqe/DWMRb4Sn3VBgFvxcENA0eLPeglGvrWgQX1NQH/fquI4qQpcfh8uTk9QQxfPztTT04vvtOrez0tE0ZGrNyvsHO0tPyZI3X5VOA0/McT0aETTwqFl+Q0x5hhmEXvk92eICB0PLVpun1lbMVdNGa20uHuXapTY2GzpPcfSHXtGiS/XRnmPPIhWpReBu9FRbEVj/gZKXaDNf7cBMxpNygMwU63pohWWmPa94gqoYvdn/5OMTN5csXtfoQUFRpyTwxzznmsey0IMU4Gz0YHW8FsBRJXSA3hY3yRgvEXbAXVMaFZNyx9BQGOC07IyojcMGeyHoXQpF+oNK5VweBXUhWgBeDkvmaKO5sMVZ50HQv1UkyyFKjHdrOZkVRrHLbXYKaQ/MV3PQgAnN/obZDFtWqNb3n0OKRrr7wDY1TzHNSCU1YwFdXwTUOQzObrIbvEnQpECz9x2bmzROwsruW0RMoZsBXg1IxGMysZ+rpOloIa9W8FroPveU/1lvhPojVo+IdBD4GXwmpzjgS0ibzMPqm9vyc0RN5S49Pb2i4n4FO1Mzo4+No9DgHbevHd3q8KFIY9JFhvM9XdZotCid2TcKoedIE2/OYfk2jCcL6q4kkvfTXg5rvuwIUXwTcxSKEc3zWJcMxjYauFDoFBTDiryev6BrgMjN/qdJoMwD8vht7CINDumwEfD4hLhpN6T6qPCO5eum/9kv0z/IFDv/QqFbhZTNaXuzG2NGTWAa3/moNJdo57eJkQBgy4xK/ysuItMn+p2Xbq9FTrtXK5Za+humFzNiXNvtgKBX6k78i67XEpE1sFB1Wl3NPI5xdT2oEersItgYS1uUuVijiCpQqPJyMXhdffZSfd39CnpSnJ8z5el1BBYx5lizCel5/AKcC9FLgTtn1QnW0W4/Srnt1Evhu0A0MaGmeSsYzGAYZOVcVmoohGM9yDvELDDR8TSOPAQpfVXO7iE+aW/YUQ6KKEhUkQ0M3WegwnAQ+NOpBg6ZR4v+ewwcxagF3aJ5oC479Toa8E0AKS0jVa+sPsOxb6NAiRrPnRliVwqWzCW0OPSxEKRDavH8B910Nv9wv7VBfoGN9XigYgWFYJTSYptPTNrmoRj/q5aD0nVzS5WL4NFzYsfc/yrDbmHOGaC0LzOf4rooVzZ1swz8zFng0mhrPdtFSFlP/OTZqZ+HOD76pAR8J7kW93+viLCVtlu7slZdoJ7fkROV+RP+wSpAtxOtv9/c/HlM/FRY19jJ6G71E/1CJ2oaifGoexJ/U++2BonxKrwRTn4fgSkBAQEBAQEBAQEBAQEBAQEBAQEDg/wOKz7e9p/xefHIm8OFAjYtlE65ZDefXCfcZKm+/MzHXJ/twW7z86TNUXwrkzfNt3Fxnf9HagyNZzpgfV0WHILlqrpscu8w6dNaqfO979cZ7g+vK9U9uf1utnvvtB64uk1vb5crlcQuWdG2atfdVtfJub8u1jzVXyb/HxJUixa5sBsvmzptfm/u5UqRyPl/zPxarmFtJ1VX+5/J5cFyaJgqKeu5wJcUcCVOkrFmmrN9erkiRfsaVFMtUa/n1HTeJVvgS+8io7l2xxFrBffOMdKZ9+kHkr0YvKu/+Hz/YXOKK4MuV/UbEVcI7j8vGrVm8dtMbS6wZUfOZvc2SE1tGk2i0aVITsT3P+s1I5jMJThPljGNlBGflpjauZa7G8HmJXOVdXKmrMr3Kde0WP83z22o+U/a1zO/mbbJiMw6CurrK56t38K6XePdMbTyucSJX8Nxx1paXWBHuZx9I1oqxVSYPRo+4wkP5q/Lt76FjP2R8z7F7OwbUZGxWbsbIVXk8HhNXHy6uYtUMcVWsoP7CPcDk1cy8D1nyVT4mZz5i/Pe4Qdv4Xvv7FrkqjzOZ8Zqrcm18Zdr2KlY1q++rDDehwHS1uqp9VG7Xh4rlfHn3Ub8XMv7sRc9OtbZ5Z7cOZlbF4vt7sbrFFdm66zzp8bvp8wJZs4r8cjHIZj7O4ZnyDXKiSrF8Zkvxyw5XRXMMkpe9osuSZn4FF93xH/XGLOM1iUPI1cq8w2+qqq6tiM0VGl3btkvElUnI5H24qqILFcuYie37K/iKQOO5yTuO4vqHoUkDLq5I9Ryu4EbkqpwT+UkzE4ONRP4KrdTdz/qR3wkZ24dcXV5Vq1e2NMk+coX94MdtFjH2kSubirHp/bUV6DrAh8oCmcjGlZl1H6N+0AWHq6x5RT9cluhJmuRywI+Fj7wxa/TkL1/CdS1XyWotY/6Cq7yfvbK5ItkEJfS4XiCYH/TaxBjKUcx9cB9Xt5wdkK88cUVtUDlXsRqYvOKtR4C/ADK+LcqErMaqv+IKjuOP6csV14uiVz9Qjap3xeJdLY9sJv5zrhJerqTYdRUswdWX2yuJZJq3az9Xyi5Xqo9cySCjN14fsZzJcysHFh78qbytP/SJcrblc25zJQO3HztyRW29HG+x/lVIoO7J8s+4knbHOMBVlm9w214mjmqmdzwHkpMkK8f9kCo3aI6p2dcPZtGaA1dJ7EO3uHJOl7lSfzXsnl7dw1WV+6lev52b8UQmz7minzz7QR2WG47UwlWonuCIkSDJXCjkjLnlka0cn6FKP4Htz2xxZV9JP8vXAwRrlY0lzrHd0DMDavlkwh6IxKr5IkhFzOu3w1tXs2q2dmXLVX6ckLI1VMVtrmyPBL2GMd3OLGdVNbvi4gX3KoPYcTOUSMTADeMPPjevknLsPE/ub5LbAVsH74pJcMyuuQPx5YB3rIBRyRdxTHhVqVTMPHz8zZm5zJjw/Ra1qWJzVUGuQMzgtJXtt1feqyacWPaOeBOZiv3zZ03yvRI1dNAq671VvDv5XOW/4cEf8OB/oXLd5Sv5DzNDlNIICY0bGbtipZKHO2QOYdsB8m2xvLLDbDfnDuzfLXEJu+CYenPOTevtOZ2ZuCuvbqRLugw+aXMnOJBY30a+4Zep8KzyXdKxOzG8e5Lf1gE95hJOs5uUOL+leCO/V+zyblVenR8kKPjJpRn/22M/P3PPlYpzQNnEFvi2mEMgICAgICAgICAgICCA+DeeYLIFyIe9OAAAAABJRU5ErkJggg==;" vertex="1" parent="1">
          <mxGeometry x="547" y="63" width="210" height="117.99" as="geometry" />
        </mxCell>
        <mxCell id="I_d5uRJIazAEXVuabp4f-10" style="edgeStyle=orthogonalEdgeStyle;rounded=0;orthogonalLoop=1;jettySize=auto;html=1;entryX=0;entryY=0.5;entryDx=0;entryDy=0;dashed=1;" edge="1" parent="1" source="I_d5uRJIazAEXVuabp4f-4" target="I_d5uRJIazAEXVuabp4f-3">
          <mxGeometry relative="1" as="geometry" />
        </mxCell>
        <mxCell id="I_d5uRJIazAEXVuabp4f-27" value="push" style="edgeLabel;html=1;align=center;verticalAlign=middle;resizable=0;points=[];" vertex="1" connectable="0" parent="I_d5uRJIazAEXVuabp4f-10">
          <mxGeometry x="-0.0686" relative="1" as="geometry">
            <mxPoint as="offset" />
          </mxGeometry>
        </mxCell>
        <mxCell id="I_d5uRJIazAEXVuabp4f-30" value="" style="edgeStyle=orthogonalEdgeStyle;rounded=0;orthogonalLoop=1;jettySize=auto;html=1;dashed=1;" edge="1" parent="1">
          <mxGeometry relative="1" as="geometry">
            <mxPoint x="390.9" y="180.99" as="sourcePoint" />
            <mxPoint x="389.9999999999999" y="261" as="targetPoint" />
          </mxGeometry>
        </mxCell>
        <mxCell id="I_d5uRJIazAEXVuabp4f-33" value="webhook " style="edgeLabel;html=1;align=center;verticalAlign=middle;resizable=0;points=[];" vertex="1" connectable="0" parent="I_d5uRJIazAEXVuabp4f-30">
          <mxGeometry x="-0.15" y="-2" relative="1" as="geometry">
            <mxPoint as="offset" />
          </mxGeometry>
        </mxCell>
        <mxCell id="I_d5uRJIazAEXVuabp4f-4" value="" style="shape=image;verticalLabelPosition=bottom;labelBackgroundColor=default;verticalAlign=top;aspect=fixed;imageAspect=0;image=data:image/png,iVBORw0KGgoAAAANSUhEUgAAAOEAAADhCAMAAAAJbSJIAAAAhFBMVEX///8iIiIXFRUAAAAeHh4WFhYPDw8TExMJCQkbGxvs7OxycnKTk5Nvb2/b29upqak6OjpSUlL09PTf39+enp4yMjK5ubmwsLCCgoL4+PhERERqamrn5+dMTEzw8PB6enq/v79iYmLMzMwsKiqKiorJycmXl5dZWFhAQECAgIBkY2MuLS0cD5qAAAAH60lEQVR4nO2aC3OiPBSGSwMkqCggXlApeNf1//+/D8iFBFDsbqe237zPzM5qTOC8uZyck/TtDQAAAAAAAAAAAAAAAAAAAAAAAAAAAAAAAAAAAAAAAAAAAAAAAAAAAAAAAAAAAADwzUTTxemQZddDPN9Erzbm65nGW4/U7NeLwatN+lLyc6GKvte4hLz7u1eb9WUcL4WeFpSQcPxq076EwZmwtr4KRrL/wYKcd42fgux//VQ9EPeBwHJBTvoeEQ0Gg48fO9brRwMoluPoQfvdabua3fb7W7A6Z5MfON7bXoHlTD3caf1xsJjreDbHcxizlk/uMUc/Kxku9Mdlw6psmfQ0XlT1Mj/vf8/wGYGFxFNn65i6tmVik1j8mPur7YP5PSJOCVlrZWNeRmlfL/mi8bJXYMwFFlth91osNkVRI283Ttakqa+AiYl6JY7nkPPd1Tlyq+qObygUD+lTOHSqavTe3FLshPnLyXLfoZGR4LDg65SS9kvPblufZXl8hi24sexuL3+LwmTGt0FSGpXPiEtdFbSVn9Nd9VZe59xsnbFOgSH/NfT4pN1/8FdtOPWQfovCAzfeDfjXyTu9DON5nueL0zpgVl6VRjM+uGRhNp4TTZbjMsZc6tkWi0UrMYHZtPoeE7dEWzjfoXAgvAwZygL9waq7z3yg3ZmxpJKLJ/W5dpidJpN4lJ0DSvgyTFIxhtaGK+QD7n6vwkwqfOyRtiKiMzf+hTTGptexcu6D40l8PvHfXeEqhUL6rQoHLm2MYTdiDIvJrO9SZzGEtpV3torOhaO13RkfwtcojOVW6M4eVYv20smSY106lbbQ/E67ZBR4s0ya+hKFK5VPkEfVpiomIJoxE+FI6fV+yySqB/0VCjXLH0fWI1mRktpi3xFeZnqv2QdHNImFniyShb0Kk6jiQ/4ovkemwmQ3OQz9bDRvd8pEGs5aO51JEqhpWsfVYjOQu1+b/BaUzEoBm3yUis1jXxbeJs8oXF9WJUEuzDiL75taoZNNUo/SKtCbjZrBrIpISV8+sFA1Zcj5FglTWHyv0YRUwbhTdMHQolSFd2UhGxkKE8nbmGkKZ071BDnDohsP8Mm4Vlg0V3uWzcIPw4JkJUbGvfQF8olS+EcWSUejO5+GQqYGud45Ba6mkI+qYCZrlAoD3itMKhTTxlRoPDY0lHy8y70i6xFY+6Ta6e6kQrEZ7BYa88RUuGrG54ZCy9b4J4UWMWbUpj317iJDA+rKklwqFL3m86CsglVB+vMKu/iEQturJ+peD7vGSmEj3uxAeVMinyCDUlcq1PuUNhQGruNIkXaV1h2+SqHN7EuYWvLtZK5ZvfuEwoOqK12yVEifUXjy/aHwpfZq6Pv+Ov8ihfYlnhYWbHzKmzl6dLb7xCy9qrqbhkL2jMKSuzv+PylkcnRWIs6/dSrszZNV7P1OpD+eN9fh3yu0aY16ymcVLphpT4kKaYyDkm7qyFSW5A1fumbF8pIr/lMKvTCfK2Ip8bMKNw17SgZ13N23H9ZVLVm0a+yHk/V67W/tv1BoLJ2pHtN8RmEix1C7hJCpezEwfVcTcxXfqRhtINehHtJO6d8ovBu1fUbhm2hnxGf14nqQHlSEqma9ZMVweXpMO36lQrut8FDnFtrk7eBYV6y3G5kAO1pI/0qFdnuW6oanjwRGQZ1H1qHtSXhCVzvwf6HCRJhjDNaH8pCPQ9NQ9QTTekLZ4tW99kKFH9LzGadlPNpkjJZJg5l41EyD+thfz5TlWZrlzZTEFyqUvt0zjOd7/p/te/E/seOug4PpQbs6pUyvIo8xLM86yQSjX6G3fV7hhSuiYoIljxQuqfE2SZEU0X2xW5a5sEu89WQ8qLfGZLOLz0y/tzHnchTIDd5mt/NweR1uLw/2Q3Wuo3xDr8JQnuaNeWfrzkQo9La7yuJcnqk04rO8sJ8FUzFfaXmWP9V+JI2r78a+qZ15255TRFyezB+6FB7V2VyaZX+eOsXIZP5grQ9ZaIsJYuYWHg3Wy2soU5dWQl5mtqxscRP3F/odmt+4d2ttmwftWN+gS2GkKhe9UR3a9SqcqCYOrQ8rmvmhXXSumk2t8KzKEVmQFB8qOcb90tFU6NotZzS8I7FL4dtWi82rSK1X4YZaXTyd41dUqW3pIsdpOUeNdbrxqDGE81brtxFrnsBUopo5Pjee1Zm+kz2jsDVJ+CGHptAzX++k7Qg7SYm8ehov5mZok9z0C0X9NLhml5JGZ9qUpNViaCos1q2yp0+hzRUmW12iRy5VIFUrdIYh0TS6t67YbGCze1fYyUxTSFZ3EpDj2i52VM/z7OIfZczKdlIQv06rA9dinjCnqOW4lVc+iQp6bjEWxz2OWBEnt3p20Ya56Zxf0XGF1afF22LFqmeWf0Gw7r5uHrNCB2kdpjYUkuD+MXuym1y34Wq1SrfXheZupxzjbCgensPwzyEvBSSigrG8RZkajGi+PKerVZgtyqJkXFC5+6iqVj1zMjynaehP7h6+71g5isHoOB7nxlLTFJLgcWz+wxlbhP9FAjEvsmuFZPXL/0hxkIp9gW31YulpXLLuOwT4+Zz4dmhe0URcIXnvP238BYzPpcaGwjK7IiT75TNUcdw212FkFSX+/+PPSznTQ5gbBXEa/2oXCgAAAAAAAAAAAAAAAAAAAAAAAAAAAAAAAAAAAAAAAAAAAAAAAAAAAAAAAAAAAAD4av4D6TCNedB8jmMAAAAASUVORK5CYII=;" vertex="1" parent="1">
          <mxGeometry x="357" y="61.989999999999995" width="120" height="120" as="geometry" />
        </mxCell>
        <mxCell id="I_d5uRJIazAEXVuabp4f-31" value="" style="edgeStyle=orthogonalEdgeStyle;rounded=0;orthogonalLoop=1;jettySize=auto;html=1;dashed=1;" edge="1" parent="1" source="I_d5uRJIazAEXVuabp4f-6" target="I_d5uRJIazAEXVuabp4f-4">
          <mxGeometry relative="1" as="geometry">
            <Array as="points">
              <mxPoint x="440" y="230" />
              <mxPoint x="440" y="230" />
            </Array>
          </mxGeometry>
        </mxCell>
        <mxCell id="I_d5uRJIazAEXVuabp4f-34" value="git clone" style="edgeLabel;html=1;align=center;verticalAlign=middle;resizable=0;points=[];" vertex="1" connectable="0" parent="I_d5uRJIazAEXVuabp4f-31">
          <mxGeometry x="0.1899" y="-1" relative="1" as="geometry">
            <mxPoint as="offset" />
          </mxGeometry>
        </mxCell>
        <mxCell id="I_d5uRJIazAEXVuabp4f-6" value="" style="shape=image;verticalLabelPosition=bottom;labelBackgroundColor=default;verticalAlign=top;aspect=fixed;imageAspect=0;image=data:image/png,iVBORw0KGgoAAAANSUhEUgAAARMAAAC3CAMAAAAGjUrGAAABU1BMVEX///8AAADw1bfTODOapKkzUGCZpaYhISHNzc2mpqZ/f3+ZmZnu7u6tra0SEhL7+/u6urpTU1MrKyugoKBta25gYGDe3t719fWBsMTU1NTYOTPo6OjFxcWPj4/12rszUV9FRUX45c0jHyCIiIg3Vmp4eHhcXFxOTk4AAAs7ODkbFRVKdY1zc3MeHh4VFRV8iY/04MSCeG7cxKl3al25p5CDdWXyPjrJPDeZiHgACgwOGx0mLTObMzI0SVchIyctPkfTxbHFt6WsoZHj0r1mYFjLvKxBPT9eWFE9My6olX+7ppDTvKIhGxRsZmxBNywYDwmKMTAAGRh3KylORkDAPjtNICAnGhpWIB/w4Ms9Hh6QgG0wBAx9d22QMS/TQDwkCQ1kKCeuOjdIaXxBIB5yICEaJy8ZNz4WISdWGBZpHBZkhZIvGRdRXGW4NDCDpbhXYm0ADBcPyfoVAAASk0lEQVR4nO2d/VvayrbHGalX3hJCgCABIgTlJSXUooiAgLXWl9IeLb5te49urae359a2e///P91JAskkE6jFMuntybfP00dDwJVP1qy1ZjIzeJ49cWXWM89/eVyZ9cRlgsllgstlgstlgstlgstlgstxJuGkPxBhRVFks5WoL+GsMZocZuILsADQJTCSGEs7aY4mJ5kk/HuAFsUS+/zF9svtFzvPy6BEg6zPMYOGcpBJVPELERy8yOl6uXMCaBBwyqKhHGPCsKDoT2alnSGOVVW53PZuCUTCztg0lENMuAiIpDmK3v1D5SHM6RKE11Kp6GisdYZJELBUiooA1UkQIBqVmljKOmCULkeYxEGM860Uj7YVH5nDJNQkECFvlS4nmMRBPsXEYvJLiAQnokB5AZwMtA4woUAgxbyNsa/GIZlbze0A4Fyh4gATtshRe8Xy8xESYXXVHFKE3MvtfYl1LPmQZ5IGWREAFmwPo2su92LzhQlKbhfWtiKgCBumiziTIJBAgUpy5U0tvOZensDa7RDNxq8O3q+JtFQka5gh0kwYILEMx2RWyrtqy1l9SYPdw8PXltYjzNUBCBG1zBBpJpJUTqYrb9/G9jQmuQOxL0DhuacOGKKWGSLMJA0kHxOPQZWfC1rW7eM8NL1xKh0TZpIBseRbBUmsq4YQ4Xl9HBJhLUvSMkSEmcSAP6MxoTX/qNV0BiYitTnhsORQNibMJAKoiookJpm9YvW9gKIRdvrCulNBliyTNA38GpL4P8wlSW7/peY3a1rRsr0v9AFH0DRERJlQQARRjUlkF2WymsvtDAPL0fD3N/2aU4mHJBMKtEQQ1JgU6xYmuTdqjbLKbgpqub+5vwqkJDHbUBFkwoB3xwO6UhbFciEWWTO1HVihvFazsnAIlPBa3z0Ar6BXOdJ6yDHxQSQbA7kEDsoluvj2AK3m6+xu/QSsq4fYE0HYBOBgfRWIVcmJMEuMSWihNdg4leh92Pd7JVbjbA1hsg57haU17efX4L0gwBQtzIHjM9qJTg8xJpHmGb9x/O4k98fOq9wOKLJoF0eYq/Vro2RcB/Al5Rew9fUc5MmYh4oUkyA4v97gL8D2H2wJrOUksfR+bAF7ArSxA7DFb1UdGFsixIQDrduNjes7OveydvScXq+z+/0xSKBECTqNUAO3PD9odYlXs4SYxJuDjQ2+cVfOrfZPVg/XhLlxXqI4Sl9604fdw6NTL9+4BBkSBqIiwwR2h68hk+sLAJlAIGPbjTaKDxMyjLM7/93wer1bLeIlPhkme/QxROL1DsC2UKuPd5JVbTgS5p51QXh+AZF4ry+aKwQsREWESVoNsF4vf1v65+rc+EDSV2OrIPRPYA9R2B/At8D3VEFq9iaiIsIk0tTcxNu4bG5rnmAbR2CfB2r9BKzVBGFOvlKZQEchHFFIMEkp0US5Pi9/1TqYU5rOazsowgtQ31wTwW4fFm39F+DUq75nq7pANvWQYJJRko5X01lLXK/1DwD+tEtxkfr+fn0d/lSrg9X3f15rb7m+JNxBJsGk3LzV3ATe9MbZuxJdKm2bmaxCHLuHfbXcF2rraxKs2g5uhhi9g2Zs5jaiIsCEA/fXIzeBujpv0c/NT0VXc8rwK+zyVBcW6PV9UAI7wjrYGr0DRtlZ22gSASZ+cDNyE9VV+GN618qk/wZmm/qBMqXtcF8NKPt/nuq+dQmIzuciwCTe3EKZwOwqidocC+FQjyWHu+pTnlr/dU0NLX0w8OpvGjSDszYS1eyZhMt0A2k6Ska+B9sak3V9tE1YO1hXw6z2/Es4kW51JPxVMz5jI02aPROYiXnexIQfNDe1xiMcrOtJ+QBUT/Z3d3f3N2Gy3oFugjoWO2MjTZo9Ex+4g03HRKVxz2qTCmATqelQ3rMwmpTYupKLpfMGcv7pPdE+z+yZUOYQq+Ue8EKbVSAcGs95lHBSU/6HZX31HmXSuCM6MDt7JlEw2LAg4U+lk9GEnE0WK/SF9yVZvrlGQJ4RHVmaPZN888riJnzjRgY7w9l9Ql02P0UX5taA2JNaFw3jbTdEK9nZM1lpbpmY8N5jWX4jin+MoLwHm8ZcC5iVxVL3w9OlN/LlV95gQnLS0uyZVExMeO/tfUtqL7cldnsYUoR18eBwmIdrm2xJFHvLT5/OS/K5no5/ayb81wtI5MPTpx+6Uml/p69E2ZOTE6kk7m9ubtZPSkAU5XfvpPmnT5ckWRxB+d2YBJpbhpMMWtUudAKoD6JUKQBw9I9SS2y1ZLFKw0ws7dbFd3e3p3ef4EnLsiwPofxuTILNY+3CeF5pNp2nGpLljlwMecKJ/J/8Bn979q518roP6xW2eruxsXHb6sx/gL4kD/vGF79ZjIVdQH6YbVpvYPTUiMzPL823QSUdiv9rQ9H1Tevvk93d5g2vFDOnUm8eQlmuakyuz4h2AmfPhAFn6oUdt1pSTyMyr2ppvvMRsC1thJHfOL2RBsfyljpI2bjswZeXl6vakOzpJdEh2dkzUYZPlBHEliipkWR5aX4kSKXdutJb1uU1P5C3lG5A40xhMt/TOoL87TlNcvRx9kxCUvVU6dtKSrtRGg2qpeX/GVV0X4/vb/mbM7W/eA2ZKI3rXh1+5Lfo7IyNNInA+EmW3lLvtQyZLM8vmaHM9wajoSPvzeUFuPsKPYZv3HcUJp8GwyKP7CMeAkwCTeXSru/kjh2TzuWIydZ5NsBUgHT37/+9+aT4UKd6q4XYC7Jz7wkwgUFWaQIDuauHV6TxLH3SHll4j0EgxYVSTLz9+XNP6igudK+99PWc7FMvAkxCAIZK3ntaVWKslQm8ciVV841/d8tHvpAv4wl+WVxc/NKFr3wcVidbrfKsbTSJxLOMuFq1XZ/JPTsmnfsG/3Vw9OXbN6mQSOc9wb8gk89t2Miqw07BBSA6HEuECWw8ygjRVaurBBQkEWs/dO8uW00VhFqtZj4vLn7rIk3n9JzwVD8iz4tBC95x/vS8+gENKL22BqjzsS0pSBYX28VwMpSHTL7AVDzfvtBi74D0pDYiTDJalL2pdkxMek/VLLS01OupSKCjpAv+wOfFz0ra6bSuVCSn96TnDhNhkqKrsCDlt6S2hYnqKEudoZssLnbjCU/h22KvA2H1JG1I9qq1N3sLTSIzJyffVBylcQ9LWYRJZxhdOtJR9tvQUZKe7DcYYCGpTxdaz5G4mxBiEpJgRIGFKgwoRpDtDJksLXW6Qyrf6EBo71trCarXgj0fvnF7UyU+RZbQHD8/UJLIVWvehonqM5DKHgyufx0xX3pKgJ1vXzYaV3etJqAl0gtISc2PzdIXygSBHhJQUCYaFfGvZ3S5rKajjnw2kFsAVJg8IPsEnRwTDlSP+a/noyC71OktmZko4waiJImi2INqd0W5CRYySmHCgAIRE3URm1tOgept41IeMZlvd9sw73Q68PrbXbkqHR0dqURUSfBHUBmtVIkQnuRHbl1GBZzfXlT1xNNTr12ZcCKVs4V4rFKJxYtlWsUiFVeKSlc44a8oz/+o37C2HyrSvDwbMenIYlcUy7EM5UsljDG0hK8I+0QdEIVtze/xLWgsUoBshUKQSbhMy2+WNSbqKCQ+kz7BVZRBlqOAx7O34kkmuHRSmVBQJjuVmuTat8QeLenJeHn5wycsTCS4gNJ3liIeTzCS8DCZKOULKytwiZZtRNdIJiJHaK75G1vul+AyH2ECktmwJ20s8QoHya5DILuW1gd6yLj9J+zuJ7jgR/hCFyYaDnAeJhaJRTlPiCEbZMky4UAP8ZOPUevrCc4Pu8RLXdjtCRmVGsf8duOxiFImJj1sNF5jAv2ECidBmktymjJkB5UcZLLUy1pfT3DU30pfh85zSUAlfQxDpSEYViRoI2kmIdBGnnp1sEtNcIzKRIpRcaWcOyquRJNcHNYqJEWWSQKICz2jj1OyJuMw5wOKA4k0qEQZChQzwXycBkRnxzqw14ckdXujzFOydnjDsMl0YAdQ0rb5YCrFcrm48nuOKRmiikASu0Nf+WRNPOEkd3QET2DJNhaLyO9FloyrvtKBpezHiuW1MMdJFSpGesDEIif2NkxWQEmSFtrtNvZ8j0sBXyoInNnPYiRn9gVNZcrqKAGw7onKpUQfLNGc2nFLk2N76nJMMBrBpkdzXBmWak5sUoDI0T26Gaxvx3F7DJcqO7aFnypHmSSwbWJTXJHiuJgj257ocnYv94h1sCjEFaIcF3BqdylNzjKJWgNKgqsEOSbyn8yEs24nHOYCysB11gljdDn8PQisdVEblwFszLGdYzU5zCRjKc9CHEW4E2wjh5kkQTxtjN6HOI4j/TDHRk5/r4pSz2ZXMlTal2aoYCDOApcJswcscvrbMpxnAhuMj8qsxOLxeKwSCFJpR6s1Tc4z+fXkMsHlMsHlMsHlMsHlMsHlMsHlMsHlMsHlMsHlMsH1izBJ6JpwUvghJ/0E/SJMjG7xhJMy+kmzfXb6ECYpTteszFgYXS094aTgL8Rk5UF38VH6f8ckoNuyMCszXCa4XCa4XCa4XCa4HsaEXtDkMiEulwkulwmuRzNJpKOVQiQSiQcomyo3rEv7lcnH4al5xrqayZaJUT5zIZsPszuU8legLbGg7STBsM8fiCu2FioZf3r8GsNHMqGKANFC0NI7C+kvKROSEnnj1LyZih0To3sDygnzAT3G+vVDyrTAZET/lcWmCabjwKJIPm3bm3wUE8r6VwAwzwI2mMSVb4hAJZvukw0TBMlwbrlNLjYsYFA7FZnn3qayuK1Dkj+TSSJi91dMX3mPMolaz0RPxJkgSEZXN5FJ2mNyWSh0JQxnS+SnM0kt2P+ZBeRaDSYVP3YiupIaY4Ig0R+qT/YT/A4ZFxxmiTBJyGP+DCgjE0r0g3ZnI3PZrEwQJMZc2YlMqvjnV23eOVMmqKey8Rh6l4yWHAKThDiKhQkSjJEANZHJxCtG7kg2HosVsvQsmDDGX4moOTiBxAvdZAuTbCBjCv7GvAozE8RL0Klt32VCx/N5NJaOvmYjpR8ZJcZwillhfzYTI5jozd2nH9KXFpiYlFV2IcTB0vjHKUwQLzHZ/D0mefWC0fRmtcw8bTuZt197OSUTw02QaeDG7R2VTCiT7PBY2Gj5xiwtlAmCxDx79jtMRq0MceGhI6ax941kOwNoSiZGE0AqRoNAHjsCjL0pDHTGNC2dSRVFYrmEyUwK+IeNjNOZPGxtw3RMEvq9Ns1v1dvyqPEgTIzrN5zbWOenXwaLpAhrX2EyE+PmFPRjQz9LGlZwD9h0dTomRglUQbschjEJjIlhsmGhsQLBrtbBOiQTmSDLowxPG4ajBPqxWWUzjYlPiKZjwoDviMOYGB9nAJ3EZAFv6hOZrNidNwrReD1Hx6ixncDpmOBFqUVpKxPkNhqZcQKTss2dnMjEb3feiIkP2KkwZrhuOiZj60KLMQYTpD57EBPaprf/vT7gSFH8oLl7qMu6RpMsE2TZ9IOYAJt1ko9ggmYzVLZfnjYdE6yP+yNMzIMqY5ngUB7DxJMsADvZFbLTMTFMkVk7VadmQgNDP5SLv8dEGYOL4D3R7E9jYsSsyRvY/DiTBTQcWqA8kolH6eak/fm4aeDAJvtMx8Q2dtpoCj8xletmgx/PZKgEY7RVmy87mrK2N1ZTTFwzMA2T8VB+GhM0ztv0AqdkYtdn0cXpKW4qJmhWo1Hk0zPBC3q9/disKpuSicEZA+0rGEXrdEzQxCkjUKZnUo5a3Dk81vzpmaDzdAJIyZnMqFf3SCZoiYXU+NMzgfkmbqrlK/hHPZ6JqVsVj6aTPhjR9W7FY5kgNgNZRz49E+3j5biyxi7powJIxrfpQ0w9Hmt+WmPRo5kgAzSAHZn9WCZ2sqvup3+WMamWfTwTDzKuOuoPzoKJXef4x+b4mUaQJgwY/AQmYQTK0FNmwMT2qxgfwsQYVTbva5OyPnkbSS/kHsHEkygbH6g9MpqeyRg7aftvp3wAk7ARkaybgqVxKnSBMjKF3eUjeTyrHzPeb5yHPlVTPeW7z9CHwsdPqLjNMzc6M2a07QFMkGiKF2gpf8z4c+UVf9JUHoX9IyEmJ6L4QUYX8u6QcZRSOsnJ0RujehTg9ENI3yhpdzDFZNCOTjafHjsy+wAmCGL7zRXC6kTr1Ixnwf8UJR5i6neZhNAHa7/AgmgCmsQEEk2bBu2yxMxyVJOYYFHJ2S3CiGkSE9qCJEvMKmf1I0wc3eSIoH6AibObMBLUw5k4uwcjST2USYDkF346rAflnb3gf0ZhMtQkJoVIoRDLR31kv9XEef0i60Z/KblMcLlMcLlMcLlMcLlMcLlMcLlMcLlMcLlMcD2B/1yZ9cTz7Ikrs579HwxXX5Ugn5dRAAAAAElFTkSuQmCC;" vertex="1" parent="1">
          <mxGeometry x="352.88" y="262" width="126.25" height="84.01" as="geometry" />
        </mxCell>
        <mxCell id="I_d5uRJIazAEXVuabp4f-39" style="edgeStyle=orthogonalEdgeStyle;rounded=0;orthogonalLoop=1;jettySize=auto;html=1;entryX=0.5;entryY=1;entryDx=0;entryDy=0;dashed=1;" edge="1" parent="1" source="I_d5uRJIazAEXVuabp4f-16" target="I_d5uRJIazAEXVuabp4f-22">
          <mxGeometry relative="1" as="geometry" />
        </mxCell>
        <mxCell id="I_d5uRJIazAEXVuabp4f-40" value="docker-compose up" style="edgeLabel;html=1;align=center;verticalAlign=middle;resizable=0;points=[];" vertex="1" connectable="0" parent="I_d5uRJIazAEXVuabp4f-39">
          <mxGeometry x="-0.2751" y="2" relative="1" as="geometry">
            <mxPoint as="offset" />
          </mxGeometry>
        </mxCell>
        <mxCell id="I_d5uRJIazAEXVuabp4f-16" value="" style="shape=image;verticalLabelPosition=bottom;labelBackgroundColor=default;verticalAlign=top;aspect=fixed;imageAspect=0;image=data:image/png,iVBORw0KGgoAAAANSUhEUgAAAOEAAADhCAMAAAAJbSJIAAAA21BMVEX////+/v4AbbgAb7kAcLkAarcAbLgAYbMAXLEAZrUAX7L5/P4AWrAAXbEAY7QAcbm/0+cAVa30+fxhnc1Sj8iItNs6e73r8/nX5/QAV6671eqYtdkAU63Q4PAZZLPg6/WZweE9brewzeZ7r9lNicUAS6kpdrw6fL6kxuJ3n85+p9LH2etIfMA7brpZkshrms0ASamAo9KOttdtlMteiMRVfsAAQafN5PKRrdWgv+JJh8JypdECeL1Adr1nj8i6zeQzisVRmM2vxuOCuN8AK56dyuev0+qJptF5l8rfqNtzAAAbxUlEQVR4nO19CWPiNtC270O2BTghNpdNWAKEc3NsE5KSvEu/r9n//4vekXwfGJsA2/bNtJso8liaRxrNaGRbYpgv+qIv+qIv+qIv+qIv+qIvOhOxLMP6qcIEm0zA72zCZw8yGKYwka4kj6sUU1hfRshAQLZ04nhM7PHrzSny+OKUl7lakYcKUEmc8tzH7ZVq3HkI/9t0Gr0Kyy5IHMJdrUgvUVmvjiYOc6oiP4PwqH14AoQ7+vBkNf0uhLnXqnj84loO8viFXOU8fpjINKH/1wkU9B9S5PHFKS/zibhPjvC3t0cewv82nVCvCk1oXIAyiQpMqcRehsrCFzP5xs5nYv+JCD/XDIzVozQDIr9tjTknwiPXlKuc7eGPeUQ/Hm2GOUO97BE9fgAlhJRKDMQGMgwDIfLTaFw/FbPHE/8Sj98eIT4ggTfG9tEFSIvyGxByAfGccvUvRMgWcx+CcE+RZRAy56MUQk9LT0r79aqU8u3iTiXyEB7RhucKWUnmsjX9LoS54h6hD/9FCD9b02FaenSPn8PNRIndHj/GlCwgt5niRSYSOyxNiis3kcpid3KzCUny0ZdV0P3GOp2gCCUKEH4aJ/CHKXGPKXwp7oH+R6PR6BJqtBp/OE+nbuLjI2SLud31cxOoA3TfbD53rM8XWQZh9glabhPubY9SlCczs7PsUvUWcefZloMtpzfETdPUyN8aXNG0MIsYJI1a7/T9IXKG2Z2VvlYywZbX0DDB7iqOYXv9yWAw6d/f09/rHsu4E0gNJvde1npmMtZgTXL6QCRnYDJ5LVutrXc1eoiwmCE3kY+wgxaSqIoi/bd4XJnMhL8WRYn8SXJ+LJ+YwQh4gAsIsq6v/2FzmmKE2nNDxjL2SXaWJrPFCIdZsvPiQgSs4JBkfXN6hJFDLxHnZ8plY4MG+lCWaoIgQGgrCDVOedWYAY8FmkOyOB0wt0eyIPhMNYiA3aCKvfWymcQOqPm25RNNFDF1kBjNV0SZIOTkMIeTjJVZOT4ED7o2S8i2E8k+4fONzI4EIOQjhMhDyEcQlUMQ2tdyxy0pQB7T6RBKGYTSIQi1SwUpK/twKSsh3Med04fSvj5091TXdvCfanc++xzCIxGb7EMjg1BfWnStLSe22EXuwgAzxenGWjtYrCr9V6iqjBZHyInGhZlAyHPGT7taBAxFOjwtAF1PtB1MJfxhNYS7xUn0oSAarya1pUGWICleH4Y5vFSMEMzM0KDcoBGbweEID+jMnQjBnngEvuGCWhrJz4GRaSy9cehnEdtTjJDdOmLQYMhxD0P4OY+faHDtWcdqRM5KYyaqHM+5tJiBgEgSY5XwGpvYKka2Onel8H6HC/zNm7UHYQGC4pYpy8R2ugbGSKaEURfG4QS3yKwtyLkkI7NL/kbkfyx3+UJvMbsKBy0vcDfNMq4/2/IFFaQTWVWNCqBN/l6P0bsNsUU9nvXe0xgrmVM3c0vyKxlIOLLENXnRPkTKzyA8IdFKNBiGMWfDt5618Fo1KQ9EaFqWGSSsMEFTGvx2g4R3TfNzaFaYYEMmLUiwYSXWVJa4WCei0SAhwIn7QZtcvH7z6PX12wVMrNg25LyGmSuYh9hN+NPLgZ/LAehtc/UtolXTYqzJKl7Q1A2r6L1Evob0oSo3DxC0bP+FicC/W3e64zgy/MPYwc5bk2WfSQ52/B+P4Bsm6sJnInk/XsCWcmEOMC2cJ6Y9vPZu8rL1dmhdey9IiiHkeLxyC1cEjurxGfOuRQN16gdEeXGvsR3fW4j0n0NifBWpERci3oJHMf+hbFymPY7nIKcd2p3ZOKGlnIDndT869BaAyiI8oDMJwqnsBbYkmq2J8oRGwIJPYNx1OqfBJE1zarxyYXsRcJhDIuDZC/KjZnIBjyKEdQknEPKq2DfdWb0NNHPNUKY9AKp4/Pgb8OaHEo93nb4/pwkomHnHZ6FLlyBMzEtdpjdEEQ5e5iItrQtJhJwkvtz9Gl+NRqOrt9uPzpr6mozHz3P9uUq9Swn8LPNDj+mP6kxSsUUQAccE1Gn0lERoA0IljvB6FtaRsjRwlVcVg86SsIwgNf7YuoVCBnSQt4A+TCHcF+PviIB7QyMXIQtXUgi9Jx7kJQf4IYkYG+ItzCJO5A/TCNeA0CiM8TkST1VBaK9QGmGCeIHH+vzdPBPCSQqhKH/LrNNURGh2nOQ4zGLked3Zasw+hAdRGmHK0vgxfkJLvegpMQ4B4RPEgDGEfDuqYyCqxQjhBuPHnmWCSt4ilgX+EJref/UHwjcfYfAyUIBQlCMeDvnxYZgjebbU4KLbcMyWgkNE+zpRdKZWMZJKbjDhDxPeAvqQTXoLEZEIOBYc8GIQ48f60POHMRjEW4T6FYsPd5HyFszydol7MELrruuHghD6YTqnee4islTv5eAFmbXJhuznQDSIXp78Vf0gh8xpBmMU8shYic1pGPZ9UaimvKDiTrBEVYAwkLmKxydzGoOsWfC0kQVxMWE9fyhRbZM4yfFW9TnfvEM/Id/jS8TYw6yHkxDVUkxyOPKeG8dhaRZpKYkuiqwpL7WWbhmPv8fRpxI+aXYy3rUyETCoTyre7UHOLJEzMxmzl4yJrVgl5r0sFiCsGTBRTQl5BI9/NoIpaGcs7jY1fA3La3aHlAf7Q5jUW7btaoQSCdZP2LZZnKCpZMKMJ2yLpiy39zxe6HhnD4KWq92VmyvlwQihWfvD5UUu/czP3sFUkKC0HI9EpaGrwk5TysO00Hi1cwDke/ydtiWVZf24QQohXdfhpxEklCihk4RhkIs0peiGoXuZ0W3kGvml+1mQ8HjobfADTLBELU8+POp7nPscBDG7w2SySjgJd6xIoihK4qlJ8nCk+83Pgimhgi7dDIBcJNX8YW8sC/yZKKfjKHgMWuRsVv465P4uqoRQe4cIfadtOzEJEkwLHFXlRuO77Sz0KWUQlldXbbD4fQg5vOx01tvtoO3BqyB3HuV4TpKoX/8uhDyHxZlmaiWETGWVVVDvlvZmt4M6NcKbppaSfo+4B/nD+gb/nj7kOfX7viCCOYbHt6/Q7+lD8O//sy+IKEBYfuZtjY3fg7AmqxbDVFDOWFbOfGY3uVfot2gpL+o/k68qsLnJPCpjbKP2sF6M/eKcAqE+t4t0q0juigh/xpYuzghQbEzLP//9FELzQimKSE+GUPkxYzN4yithBTKbinp+hBBHdA5+YSiFdV8TaRP1/C6f51v0U9PSPi0hd+lbfE/Tm5/fIfJYnOS6uvL+sMK97oOyX6QjA+SMZ7OalLsR7h/I5rR1bmP6p3HVzhe+PMIKZK7R3kcJRyVekJXJQaIGVMlbgKkZzM9ravjaTUfbo1vFAKohZBnrFu0X63gkcM583+tsR0bIdtAZPSJfUxvx14NP7/GBBiOndjaENdxdHyBjlqo0EajpufoQrIw+DTbOKG1LU3KXviWq4B6fS00FtXtLB2ElhJ/x+B7309A4k5pKDfL4s5qh2IOw1EBm+ueJLwTOeItNRz/VhxXp6Uo5QyfyAroeHCxjjCp5Cz81uTkDQA5t7q30yswZ/CFNkPWoky/XGJu1xeQ18ckRklT7+4nNKS923+ohwDN7fEorXT1hJ/I1+ebxuJuelGyigBvCxNHeF10+AVCQW3d2JFr1YZQQt8q9bHTvQD3VIxpoOLk1TSz/lvIWu5iSgMu3jvnaFU/jMsg7pB0zdPTV+/DzHt9LmHc34s7n7J8gCCY29ZLdU6EP9y2M55H71hWPrai8IBn6rbW/8ipUSQli3AxjP+jqcRVV4GTlemsWyFbWJn7W4zPeKLFXjWOORYEXFfV5xoRDsDrC43l8/zb74bskHElTiYI2HrdWsfAHISx4WyhL4RWvEPfuO979Xk8FEgRRafzo7PLypRDG2Zn0tWxWTgE59zHW1GmIn/X9MMcVldb82X/rvgymEoaissfPvQZOYzLXMfcJTSVvnqoIbehXBRUdQQVvUdHIJLLsy5b6KYiirKsr97AmPqXHjyW2112DO2Q0SjwvGg1jtGUzkhy/D1OdWc3vWNt5S8FE4UrCpN+8kNfvFDRu2pEDLDeyyo7DnSY0vvf5fibKwrrbuYpkNed9wnyEnIiR4fDjaTvCVwZTtS7wpKys5juK622fx+TzbFHid/oP8gkegBMdWUbq1Wo9eIpP0I6AMN8fHjyQ0w1mztbPb6IB+ko+qfQ+EvE/KiTvUpLNlbAjGy1dFod3nUnd3VXS70RYxE1B2oP1x9sGey8K6zqipOutVotkICSOHz462/eeFT2WPzlC/ypzLNJMdzboN6e3w+FyuKE0XC6Hb6vX6fR+Mui5lharjE38Oh19tonidov80DTTNF3Xcmf0AwrbslzLInu2aQlEbJkiQ6Z93OwO7tLCJ1phP1MB5Y/q49SbU2S2lIJEpQoKgVVDWKoPCxFW8zLH6+jz9eF/mw5v0IJEKe5DijxEt06IsJTOVxsYJ0d41GY4F8L/G/TZJkokPmXaT1BkdeFPatpPUGS2lN2Jcu1xgj6sxn0wQoY1jydOtZJKtWwhwnJkd2ZVb9lNrPvunsnOlWwiCOJXi8f3+HbY2ftTBRUwsbNH9Fhn95dUvsidAMohZLTeUBd1lTz3OoY4vXlX7M57p0HIZBCW0G7GvJecP0W0LGlu9ojDNhtqTTXu2ZMgPHAsTjgsiOjycx8FBMR+a4mCqtyfaSSWa6LByBFE4zK9oc+OxB6NYJuKKmCjzzJ7Syoyk6WYSldQDWGxOD5CdH9+hPv6EP3nEZbpQ7Y0QuN8CMvQQKCW5ji2gW3qgFDun8XSxDuroNW1ySiBsLjX93sLghD3z+ItSiK0+rsRsjty/g0IQziMmUXoMzGZnJzKY0yHIIyoDFMaYWZlPX9wDHjMH8PjxxDKKYTVy6nAntMgLAXjHZ/CEISO34dxK+W3VbDVAZvViKAg1jTDSwUeP3iamLjfS8X38/SSJqOFX7D7J79kmVIVxLLdSfPi5+XPbxPvGV+OtwCyJ38Bz2uzvtNbgBzt/ith6vdS3iLHH7rLeZ9N5MD9g28gyMW3fmbHge14GAR09j2t435rpZlSf4U13S9HDtlrBzni6Cc5YGLCpT0+W7942TgyZeLHF5PcHRrNwXK8kBVdN2R18zJ10wgTAljNDWos1vGPDc3mxXhBBNENdTS8TxwD0Z839A35rq3XHG4cpEMlzmJ0uS3Rh9b2DbV0b69xLCsN5WGrzcY42YduZ27ohs+E9IZzF3sfxpdCm31cN3Qk001osdJq/Vi7dOhThEq8D4G5t9JbqqhLg1AS8/2Xo+sIk/sx1nXlkd7vS3mNRLF7x1ideUtXMHkui1VZV+YDLYMwaWbM3p3ewJL/+FaoCRLuOuv+WOX9cUiYtPpjV1c5+oCXMqrOzXwbvvfqyex2NjeGyPt7ztaAqXHzRtuBWhol9Pi0xdbzG7Um1CDkCO9/dm5kla/x3pktAqc2ug/hi2/2AtjF5eC2pRBBvFqAqfXmBiwJvYwSk3ED0yfTItn9VyKv1AmqwQkSH3kLdis2JO/hNelD8ki7JhnGnRVvPfeWvIUi+EyAlONrYndTZ32EKGZLtfqvhiIJ5DOSUbA1pPvQ8N4pk+hWxDzd/6M7f/cv29fkdXoJ6yppAq8OEeSQf/QSupmxfr0R2SZc4LCugHYZuqKCaAJAhUJChH1FIU/pRZnoqay0DLIrFy+2vM+UvILcW8gVoOFhoBL10VXSJlwXmjjpLYi0a75Bd5WEFtj6X1m4D+QFVmhdhegp0luYqwFGOWgBd0O+ZhWhD0AQBHqqYhg2qqQ8uAkDlkZoP+qk11RZfXteTybrj0elRTZ8JVtThQjbDQTFCnJjc0uYOndzXSHi060PAoS3DsCGuvH8rjMBpgeHdMmfdD/eyON7w/XRIdtmCpLS/fXuf6xmrchLyLyoKI8fcP/6+cFp0Xd2sOP1kU0RchJ0gNwCQUgdz48IPZISYnqZQmhNb8jWrsgZNV1/k7jOWPdfBg4QPl3r5IsS7KzqFmEyzd50A1E7aIjcD4pst0DXeVXZ/Az2mJssEeBQNrPEnIYxZ81rXSXjWdU3Uyvo1teuCl2GW+PnnkkrIfaP7gxqzKm58hGSXUEWviAg7brTCw/CznpuoHuEazwvq9PoTR7NGsr0le5gTuOuGjUYXo68tcL7THtMIbbm/n2ug8g7sa1ltA+iZnVUQ+42zcCWegjf5wqiW3uprZdZWGt7Idc4QdQv3ZggHRlajRNu6KfPLh2HZOSK72YoiJZe1U399TQ0oHOQM4h2uyEKc0m/VuM9b8EMHEwGNOqYCabhDZgVVbmgWdatDlKrNx9WbEdKhu0tReLuPIQ68YfWrYPJvpg1sdF9tqLGHiuiIEjd+GcJxMBBY3CCQociIBTIW0gNeoJExJTGlPxraoC6SGidOu/NumyQQe/1obXSQX1k9Z1JaoP11oX6sEz7bLaQobWNWytWeTQB9RBiGJCDkSKTIc0bN6v4GSR1MojB20WfJXi/B44MRqHRCfuQb81tJiFJYR+6b6AvnPxoMWzyFrA/UtCHExEJnEQO70mVtgW3AZaF9Ay7JlsvIP+7gmQlwZxGFu+tNQJ7CcMVd7032AMmbUl03PA+sIwbCusZOrGmXD75fciLsidIMcJwJjIYQReqiwETbznqrra0TamluSdv6OEfbmayZ00ReDT0QnYyXenQCqiZ2og6QgimReRflje6UOM5SZQ/Zgkma44kXhW3TIbcH1jisdoPtBQ9uExGkngiEbxo5BNfSR7nhEj2m8x7CLUpJts6T80s01YCvZHJIVVtsmMW3mQedARNSRCCQdPFGrHS8tU6VVpvIcJAGE/cJ9u1bbsHBAnX7tlPlwQ7bnoeH0Tau69LvGm1JlIFFV/kXDI/DIlGT6y9AjujLuo5TL1LGSziokciEUgpw9jnWVmE0TuLyjj5ij7M1x3yhubocnW5XK1Wy5eXFy9xuVyOALuEpxrx+KDe/ITNSpKMgOMw7sCAydIkews590ClCLX2EMOEZxOLUoIEPVOEF506iUQAgfKaw5RACE2l0h8rK4mwL5O9hjksy4YsywjJ5D+acKhvxmDCKEJ52MucDpDS2YSEK0MU0GjGZG5hmLUIIweDls4owqtMHEZaaIoJQjDlfRUQRCeJ7UAI3SQjb+KzsuII2QmiCCVJEun/MKXyfkp0ZxUBAzA6L5VXFpMeebusDUP8gMHV0FWPyaGJiEH9L3yE8jzv4yQTTI3XhxQhmrA5TBFC0DG0/MlDhAD2vxkfiR5C73Vp7xdP4QZ/CxjsC/EWklzuK6kAq3kHfSiT47+yzdAHLVWdb2BEIFCU8NzKYdI6MnEX0IcDoqVG08wfHdRbQFDU+mOqaZ3vYBIF7KxjUR07oKcsSNGZnwlS5e7Us6U+wtBJ7POH2rNBgppXJqtX2jMMUdV5pVZV4MRF3sZN7grchUgmxmQ/fUm/dAsQgnRD15sJk2BNX0SBb9CHgiD6h30BxRLY8T0++KZbi0lVUoiQ7FsioXGe8A/ggvFiQjoakc23mlqWaSBhMHMb4i1GBoyRzY5TC/05DZmlA1l3EEoDxHmdDZl6EMHx6qhvP1EiW0Q/PfW8FCRsLUAoV0NIPT6vXtczfahNYGCBApOJVQfDaEdDN8NkPusiNNDQJJ+ZgMfnnE6Bx6ezNmol7Add5GpS128QinouSwLO8/gRUS3N6cOE7qXJepDJtPQtM3rtN53sSDWmPTWSwQg6k4zLn80xuRtcFaOtoQ95dLXj3YZ4jA/U+yGTj6e60ffb2hIQcsqDvctWMZ7Hl4gt3UNx+DDzhtEGPnubPP0LxgpMdmrYoAdKwYysJvF0zplgslctiZhHaorbZJanyv7JDFGDmjTgSsf47QUmvqH15p8zR2bYYg28U3pHcsaM2pUiRAlvsc/jk6rGikAG0CBxYKQ5EaFLao0rL5SZKMQMoLcZGy9udumAIov6kPJYqy6Jf9GzFS+IcbedmZlGSADJConnu49BAKyNEDljxQjv94aRvd2GR3qBxxeKETIZhJDoKGTFRVnEJ4rm1CERDtb7Xu3uslUjM8J5PaZD1rBBlnd0secx2TqxkFhJ+Kv3ueNck0NTCEInvhLVVMBC11RlGaxI/u0gqAQ78fmvNpgvlFCVyZxGkvf3YYpgwEFIwsvOMJh4MoM5wmSh5vtdUNlTC1OIi1XQoOb0WhFrEMZ2X/0c9hv4VpBZ3/SDmY27dCCS1sOVqHAckgI6XbJkJiqrgPvyRoIMVZ6He5n1htDSYnfsi2Ef4PEJ9btkGygYQtfDv/7+++/+t6FEDrohR4ZGc532/1PpWRRo8/Ovv9t/91/HDtkBrMb9celvwgl4FEOoceD1xPHr//+7PfhrOUcq2dqKrkSlnwGDIf5O17KMAJA1/M7BVEDSFy/k/r//+rkxMAlIsB/2pzx+iKTIW9Ab298dvkYOM9J17JC1cmLnalJLjqIJaIcbvUZWEw2duGGkKyo5uEP9fmtGPBb/nSPdgg2yLIl13RDJItcNiSyzzy3IB/5k8RE5g6CJ3r6ThQXJW9Z0FHp/jVckM0JY1eP7o57oEi/A1AwZBjS7QCO5t3pi6WbiNMhKMfQ1MhBW6UFruHEbbEdCC7LfGuTzUqGmylAQJrGgIDa8FWHq8ZOr+tZtC6Z6te74ya+ErghD63IqMhQDk/VUQeqSgyzZgxF6tw7eDFkMj+8h50hg49b2L/pM7GBjqLROn0tSjc002tWJlujeLUgLhWcD8aKqPNb9VX0Yos3ksyf3oSVCc+jr8P5bWRalQAyydo6VxzbrVwLjUOA9f1je4/tkP290/8Q+8kRFlx87bpqHna02uhyc+wdM+GEbrV/5imZt31TdK0WE/2R9c+e9y9Z3HEmOWxpKvceWJDpitE2i23lEOiZfvankHwru9y6CE5UaD2U8fpgIB6NWf367Rt5hE8bmVyf+ICBksrYfj453goVuzO862Q3FiRjrX3PZPwhDfPx4D1ZTfzUa3V92UgDyxmK3q4C6RMh7nV8bwztAQ1m8Pdej7zFJnNDoLrZMFY8fGjbA6L53poSanbrFZp5kekymPXmmTM/rGXkGm8ekWbM15Zl2Bna4cMv2Pm6nvWjIBty9D9pSIWZ6f8e/f+tqTPyaub67e9eYbBcVevyoSo0em2rRh9O5AzlkMi1TY5JMsQoYNihJC1qG/IabEiX5CdNKrJBSCb3bk5XQhEbOZ81RwkKP/1+l3eiL7HDWcLEFDZpfSal6dxVZSsodUuQnyotTWvjTF3n8Cv4lCEv14dk6+gDuSKSzUmjodyZK3F291k8O5FLtWJAoxVS2yFxJKmvK0cQ5GcLUtcPHwj8WYboPc/by+JxJKQusGsJDuNlsdWXlLqXF1VT9ZEUWMCQTbJkKQqZq3CctsnTrlK7gAOFPWuSJEP7ORksJEPwZYd2bOJ4lOdDcVCvxBODYqjIdmzsv64u+6Iu+6Iu+6Iu+6Iu+6ItOS/8LSUZqspbzjd4AAAAASUVORK5CYII=;" vertex="1" parent="1">
          <mxGeometry x="86.98" y="230" width="93.5" height="93.5" as="geometry" />
        </mxCell>
        <mxCell id="I_d5uRJIazAEXVuabp4f-17" value="" style="shape=image;verticalLabelPosition=bottom;labelBackgroundColor=default;verticalAlign=top;aspect=fixed;imageAspect=0;image=data:image/png,iVBORw0KGgoAAAANSUhEUgAAAT8AAACeCAMAAABzT/1mAAABOFBMVEX///8jHyAAAADuvhY9vLEIpN/WoigCnJAWEBLf3t8YExTn5+f///54d3chHR4KAABsaGm/v7/IyMiqqqrWnxvj8O2VlZXlwYEAnZDq9PLw8PAQBwrvuwBhYWKgoKDy03oxLzAAndza7fWMjIzt7e1WuOLR0dEIpOHHx8exsbEXFhNWVlYaFBaEgoPX19dAPz9xb3BPTE337cn4+u0jAQBGREUoKCg6ODn78eL37tHy3J/uxjzwy1Xw2pP06LzsxkDrxSLz2IfbslrdpQDm0KH17MHs3LTVmQDsuR/hriLWqUHfxIvy56zz6c/wtgAAAw9mvt3G5PARls0kEgATfKUbZX8aTVsgNT9et+WHy+sGqNoaQUqs1eoYAADE5uxsyr+m2dVTraPB6OCEw7p0zcUsvK07qZ6a2M+DZ5UOAAAM50lEQVR4nO2dCXfbNhLHSdhOKEokdcTcmLQYuVRkqSR1xJXUNInbdHvs0WS77XaPbjeHGyff/xvsgOABkgBJ2/KT84x/3+uLKRIY/DgDzACOIklCQkJCQkJCQkJCQkJCQkJCQkJCF1eL/K+1bTs+XrVCbduKj00RsNbJ548fgV583spcF6pQSzp5/MWDJzs7h5F2njx9dnoSfiQYVurk9CmQ26EVUvzy2WPBr0zhVPfo6WEOXkpx58kPJxihgMgUgDn9igePEHx5+PxE0GMJUzl9UgYvdsLnJ9u29QYKovLF13+spEcInop5MK+W9M29e3fu/KkewacnAiAlYGF9/f0drFr8wAW/lURmTekFdr4LANw5fCZiONV3399JVC+Ed14+EACJYOqj8NUGePhURDBRFl/9EH4q+GHv+y6H7wIARSXSkh4X8N35c12Az7dt/tbVOrlXwFd7Ctx5+cW27d+q8Pz1Fwa+2hH88nTbQ9iuWtJfWe5XN4IPf9j2ALYrqHmLk1/9CD789tavH+zoBd2rjl1RBEvfsKO32gEPD798JHbzT+6VKDn9KOrlzoNHYhtakl78oUQPeHp2+vhE+N4VJE6FhYRuvvJhKmJWaIOaNir0SVHEIYUfghqoQn87Kmhv78e/C3hEPUMu12c/7RV1fPRwX8yDWJpSwe/nfxwf5+mF/4ELCoTSQK/i98tenh9GeHx89Grbtt8EoQp8sv5PBr497JNHB9s2fvtqVPP7FwMfYfhvEb7jSn6y/isP4NEn2zZ/65pULb8wAfL4He/959Y7oFPN7zNu/B7/euv5mXY1P278Hu/d+gTGrcGPlUATfMcHt72Iq+N/PH4QwLeen3MlfmL+qyx/S+a/4z2RAHaq87+ff2UVICHA37Zt/tY1qq4/Vhz/g+Xjts9+kjSs5vdfHr6j3249PklCVfsv7P0DWHuPHgp8kuT5VdPfL2zv2xP4sNwa+6csgEc/ir8BhzVGn5ZJ/fR/Px0xpr6HrwQ9Iq9foYcF/fjbvnC+2ir+ksut3zUQEvpIJGJV6Jp1sF+mA462bfXN0au7Jbq/y9XrN/vbNv1m6O3d+1zx8e2ew39n27b9Jmgf3IztfGXuFzE8u/XfLdaSfucBvPu+gh8QfHfr1+hWizv9VeLDEmvJ/lXw7e6KdeTDRRffXAjfer1lzYA13U8EMEyB7y/rfSJ8iQoAq9deEr1ntzx/IWodvM+FcG18QqEO3l8C3+4r4X2J3mIHvE+S6Zrety/wUfr9blyJ1KP3+kDQo9SK9mLu18T3QfwlroLeAr6amYuIXZZeva/nfW8EPZYAytnueXXoHojY5evsdQnB8/PdD6Jiq9D+h3MOwvN34i++1VFr/83r83OaIvzx9YczEbUX0P7Zmw/vXmO9+/3Nmfg7vxcSC5YgKCQkJCQkJCQkJCQkJCQkJCRUS2a/7zW3bcR1auj1++71Na8ZPmpsrLXuejmbbKy1jaiJfKN9fc1rirxBfmPko97GWtuImkhWbyy/nuNkcHWRbAh+9SUjJNM/j5Et/O8CGuj6gP55GrhB96ombVYfFb8bKMHvahL8ribB72raJD+r0Wjkio0ivyH+tvoh42l8vWllLtXg12S0ZjWKhqR3W4zrVpP3RGRb7ta0x5TfsLyJKlnOzMbfRK8s6AyD4meNesFipRj4JkPWGtmHl0p43ZbXbXOCh9jpt9v4m3HakfBto36730mfGpoz8pS+nrvxkBrugHShyEvNGVOdTLzwbntmUggbE7c90EPLwXSquEn7mvSRF11smmvShj6bk1YIP2vSlsNec+OqrwmMQpZ1XdZ9hNIxUvzgDsWPv8dKV5CTPtxDKP5E11U7fGKC1PBLm9RQioKtHSOVyv9MGIYeP4SiVz+Hi3FLvoL8lIeOfLiGLbSpvoGFqsdP+GiZoO2QWmcYgG1Kn1xzqR4VNIz46Z6GkKrH47pUgmoiXVbhDcLbASvTNih+Y6TYRvzvJUBvKeUAhYNCxANVNbRsgmz8rZO6TWTggWXqDw3Bp2rUnoHIwNfwjG+kTa1THJGBBlLBwCC+rlNGqbJsL9IHZDQBYviboyJ+fRQCIrJR7H+yr+h+5MFwM6J9vqagMx21uzDuZmdhwJ+nRX4jL3AmnSlMEs1GTwbKq/Rh2V47I5g/pp2eqS1Cy0aua650feVGknL8JthwYz7B/zLIaOKQPZDAAPs9cg2aas9iHPgbzJHXAScddtuAEsWR2p+bvQ7uutkYYT7JWwWr1PmKvI61ia848LFqa9keMT8dKZ6DRzbWoGl/dnF+CmURuJPsx3bz1l8L4gBFpYTny7bGbDa/flD8WiuwdJmbry2aTEZLX0Zm/EMP3rbOuitQZDUK1fCt+jqEhdeLeoHGFS+/VuH4XU+SqMff9Jg4T22BQfR0NvMTaNz8pWfIthPbxR5NKb8x2K3kl9Ix9hlWQ/CBQr2iuULNHrRQNip0pLvJKwKHZ2QDzVyX8AoMp3BXhdZ60m3UtR29bC6/aTKiIW/QpfygYdvM3w9DNJjuh4FRvjrlJW0LePNWMghdpkm0VdbmTz7/G/FHwxUQUALqZwsCOAoDLr9mcs/l+C11RsNcfrC0evTPPiexxOam/OyMI0GGgIr5XSF/piavusJLVSYc5MQ8Lr9h2i+8aJXdMJ+fhUfDMoTpVw2Uc1bP121WDp/lR89J2GAW8wI/3qspkWnnIHlJGNTht4aVYMG8ic8Pj6a4zuHFEAXFAqPwggOF5Uul/OAdqF7xiQI/CAybVeKUyAV+mbc5V7n8rEa303Pn/Zme9GvilQ6tg05hRHx+DbanLXEKhzxznHUuWKyyiyJ+49QFazjqTEytvVjJXH6j7BIUq8Av9Z3agtlZdR0zkbPQ2fwm/RVJbBWcrif9znA6rUNmqyyCDt03nx9nNNMwg4UKBsl9c5T8ErljwwRNG9iHQY6iD0fB0iBG+dgqHj9Ywm3GQVuBX1u9MD+wRlZsSqkZNL+OD1WO7yskVaf4gQMjRQ8LKAXZ85Q3n1+XzU9qtpGhkqZstIoLXfzvD2QMBIMjsywPQVXpR1VICb9Ofg6NOrwOfrjeIh9l6l/IP9GyHZhQhVjZfq2ONsDlT+iHaQZczo9e8qkB9fo+3j3ATRk66RvzU3MGkvnPWik4y+trLq5Cyua/a+QHjyiBmRP5KOWHawNjnsxLw+IENpoEM1z964nHXjh+I1ndnqbjUPZJWgrxq2o5+9xwkBrO8tKCtYRf9/riF69mrGxAovk5RpIUMvslshxDTz2Lzy9NH7lq4A0GUswDP8Q+d0JyZn0r4Tdlp6mb4Ofa3Jov5YfbpcbA3bfFhVm8a1KS/7GzsazgvRKXmRicsniUew3l+QsrMd4Evx7PPJrfLJu+8/e9B2lmnKsLaX4yK3/OqREH+Yg9dxUntRJ+llEvf74EvxF3Mqf4ARY65efzwwlU9Melrvu0LVT9hivVqn0OK+5jyCuqerlfaCjhJ8n16rdL8MMVmMz+5BL+N0s9C6dptMkUvyQ2S9RMFpk1c+whJIVupYwfZLl2cWdlI/zw1gQzPnLzH1VD4T0GJr8GVZnhhWlEfUbx6+KZn7NoxYJlI2IMCYzC2qMY5RyzjF+4IVMgsxF+4WCY+/7Z9TetWJuw5sSYMr01cZzHLgETayZLofefV5DoDPJVc6YpvIMX4Q8LY5a74uvJqtbqzNJd3QI/KdxbznvxRvhJHuRaaOB0R6DuuOOYWuQadP4HSfaia1lNyPNWCJ9t2CQdnKNBO3Am42537PTD45PkLA0Pbz4eQcls5s8/JuH+5sLsdLsdxw36oc2fotncdeBSt2PiqlBdRne7+IxAd8eRgT1TI5PnHKfPvaY1nI5NL6w/4nSwyM8J63TPAUMn0GObOn+7Kj+cxidHQLiWjGcbqv4g2wTkmAXvi4OtCtLCHnU1qp9wYaVTYb5Q8U3h+VBDKpwfQQvk3Ma2FdKLjo/viBm4iFTUxF0WKGcg6aSJGyEHSLYPpQ8eBgrHX+QXnh9RPcbnbxvgJ1l9DIWc7OFqMl4bNaQk+WlADvlgiAZaO9MBAoODcGi26scPK2hAZ4mqEV0Pw2qMlMz5peHryUkl7tACMH50EooL4D41QWoYUGygascJ18gm5534dlWbBriGDJevDlLy/MCL6R6bhJ+CMol8Gy5cnB8Yos3Cw0R1sPQ0Mz5R6QVukAyiG26/qLN2L0Q68cic1Ow47cUgfFhfatnTP8tdh43OPDyR5X5/zXK8QfjUGnoMe5lO3P5yFXrsauFm85uGu9RD51/NvLkZHwrhHsD/7IHnjrHNUw06DJsKgqBwEjl0vHAHSZ95mhMO0QKTMjO/Axcuww+3FarylsyP1Q9bw2FJo6ynuGZw+uAbxWuk9AYhISEhISEhISEhoY3o/2e7h8hRNGttAAAAAElFTkSuQmCC;" vertex="1" parent="1">
          <mxGeometry x="79.53" y="65" width="100.95" height="50" as="geometry" />
        </mxCell>
        <mxCell id="I_d5uRJIazAEXVuabp4f-19" value="" style="shape=image;verticalLabelPosition=bottom;labelBackgroundColor=default;verticalAlign=top;aspect=fixed;imageAspect=0;image=data:image/png,iVBORw0KGgoAAAANSUhEUgAAARoAAACzCAMAAABhCSMaAAAA+VBMVEX///8AAAD/vgAcERUAwLMBqZj/wAH+//4bEhUbEhMdERV+e3z+/fX+xB+fnZ7d29wAABUWCw//zACcbwsAua35+fkZExAArpwVMywyMDEAwLULAABe3dOt7+qGg4QAt6YcCQt04dqjoaLu7O2sqqv+ySWSkZFfXF10cXK9ursPAAbZ19jJx8jm5OX08vMhHR49OTpsaWpNSkv9twBiX2C0sbISDQ/Fw8RHQ0QpJif8zj390lz935D/7Ln+99n8xAD/2nr95q78zkv/5KD788L/0DClfCuSfi9jzcwoLDgAAAwAJjEArp0AIRgAoJO+ysqn7OTK9vMoICO0C+ABAAAMD0lEQVR4nO2dC4PauBHHrfVlbZkNrtp4U86Nr8XEGL8wBFjIXdJ79Pq4pul1v/+H6YzkJ9iwe7vAZq1/XgsysvTzaDQjGUdRpKSkpKSkpKSkpKSkpKSkpKSkpIQ0+MX/FhI/nbtRT0M1MJyNBJOrbiT4QrLhAiu5ev+20M/vv/3uw0fJBgVWcvXy4jLXBddfv/9whQXdNiCO5nJLQOf9T1dax/1xA5oL8evlD1B8de72nVHoa14WIyn/AdDADz9+zKbzbqqOpiJuPh+0q+4Oqn1oLi/efddhs9mL5vJSsOmmWtHkg6q7bPahEfPVD11lcxDN5eXHjs7h+wcU//NjR2epvWgyd/OTRNOG5u2VRNPib979JNG04XnZSW9zBzRgNh/O3cxz6E5oLr7tYrJwlwEFE3gXHfGdrOby3d86uOB3FzQXMEd1j8xdreb7DiZSd0Nz8aNE04bmfQcXtO4U8l1evpVW04bmZffISDTtujOaczf09JJoWiXRtEqiaZVE0yqJplUSTaskmlbdLYfqJhpN270ra1edjIYlmjblA+oQmmLXW2vUObtwNKHVXBxYNb+8eJv3v42CZZ2y0SeSdvX7w/r5oF08Q8MBq/n7Hw7qH/8U+lOb3py7H48vGCDWv3753QH98u/Xn1+8ePH5xadvmvXqL+fuyHGUMkM1VJX/EX/VZFD65z9+esH1zddfNeq5opnb9HqfEM3rDE0zmWeLZhwYKBV/q+U/+Q+UGiWajlmNT1QdtDOSMunXtLNohkTfh0al14fQfP1c0YSE0oehebZWk9gSTZvWNm3l0u0BpXjkgWier9WEEk2brJTtcTWdRqP0iZy8W2TacoZqk08kmhaBI5YDqkUzIt1wi1zCJJoW9dFsmgdVxweUYs3tNk/cdatRzNZJqutoNGXZ5om7jgbkEENtspyu+xqQNW7OF6TVoCsmTe5GolGE3ag7g0oOKJQFydROdCOtRuF7+n0Iiw2JplHRYHsSl2hyuT1iU5q5HJyy6MEtui74GiEwHKbrtEAjrUaI30O0TAnQkWiaZE3GhASUD6rqTSQweJrUJTQgsz8ngIdRjub1a2E1jQKreYY3rLUK+xpPnPkU+JD/vPjM9enVV68a1S2rye5ctOIwjP775tc3+/Tr/87cVqmnq+d68/TjqEN3m99bEoOUlJSUlFT3dJ7533JdNznLme8hDVvpnvqsHqTJ/qlPem+F0Mrpqb+S2CcG6Z34nPeXSVQ2OD0aXaJp1rHRTDzPuXlwLc8STQ+8hPPgWs6Ehh4VjUNU4j24FommVRJNq54Omn3LcHvKmpbv2tHc5yRPBM2+1Umtsfv75EDcdA+raam7RHPCnOH4A2oHzb7etXB/IlbjLr3ZYrzw+9FObqXFo95sPF70hlGSQFYTx6ZZfGziYNHMGU7CLCtLzDj2bZU4cCDKzDqXxDcjzxcnCa0tHPHSWSzGMx/qMd2cRo4mifo+fKw3ih8VQrO20URjmxAbhFmLU0/pIty4zcr0Wz3Af8dZh3xWlhG2meGbQ9znVVWVv4dCjpa/3vAXtjh6HVVPEY4r1RB9kBkcokmTm8VUlOJ5jw9nC41DbGboDESpygiNCvPXsAzew3YziocYqmrYnAFCYKrKxOd0XQ/W4t3s++D4LAGqUoGGBCsKx1I8WFX1gCxrpzcMFYuoijel5JkvoFFvU2gbb5pKKSW2qRxZdTQ+0Q1G7EG6TuHSGgCnZOMRHa5/uvD9RWrbKnLJrQYYGDpY2WAwuFX59c7QgNUYql63Gm4x9HYwSNN0hXcCklCcQIPQGZgRAmWDKeOf6OVodCRPxDkYUQ01SI/te2poloSq9rQf40mTCO9gZNPc4WDryDzrhbnAwW+aZohvxLxHTuRalpXEZjTyHF5lOBwtF4Fqz5YjIT4+vf4yjOMEH3tkxQBDJ7PsFCG8CKaeCWWWy+vp9cuTMzL1hyaeIx5tAmjM5IRotJTpQVoOYrzTnojG4RWlQVp+bm5TMizqgIaGzfUfCvlgBmO3GX7fpkxt9CHoa6bL0vPFU6bbx15mqqKJCNVrXXSInocT1oBRUkmhQ0KL6XSGs1BL/YfQuECDCE8Mp9Crjqci7oarb4zgDf3II6qKBq6gvagWxqU5uLbBVpXZPNGpQbIrPA5UoNYckRxMFMa2kfGwBlQlzROPmLwrZzBt1Wg59tFURZOCYYxqpfNAz4YNWsm6WrSGERXmRxm/HY0PB4hTJBvWjkavh3wJGnF03Ni4gsYiVMyvpXrFag6gsefVInQ2WUgCrha634bmQKIAzj5DwwfUpDEg3o2Gx3D65sH3aKqgwWev2MlWqZ4NsX1W4+C4E+1sSC8PoOkVVoO01VWjO99FA7NCMQ0cSRU0N4CG1l3bhGTRG7gdWk7kIGvKChO74dFJ6kUNo6EdTeKG0WTkrVmBZsin6Pkw2tlX2UKjYb201VIfSRU0E+j9pl4aFfNQsqHFABKN1amdo+Df/YGAjK1725lXI5p46IzXmxUP6pieDyjFogHEzgEhdA71VC/SrtV4HM1RVUdjD+qlOIw2okkwuO1xWTIr7Enh34uy8UsclCdS82WlEw1oojUexbMKSMMqaJQ4hZwLLJDHz6vxpKinGc3D15z3qoZGXzWg4QGZhsPNIL3M1F38bmF1rN/MpthdSLzAXxG9dJC7aDz8RgPv+yad+05lQIGWYybqoXjMIDfTXTT9E6OB0VMvBTTXG4FGwW+FEX3m9PvO7BYSx6C+nehG/VmK5gCpJIPOZm4AXHQdzQRC7ID0JlEIyYJSnaGE4htvMcDkC+AE+RDeRqOd2GrALq5v66Xga1Z5k5IUsjrGU0XIzhlZ7aa+VmIOFwQzqlXuSbfRJIMVJCMVP1vGNdV6wv6Y2DCwshzy3FYDHCirz1CQbwZFNGM54CVxTQIXalhva6GrCEeSHppXHjpuh3wRFppK+X8kbVtNIRdS2Dw+ODcaE0M+d6tUr6QOOF/N5uv1fObduC0LmfgmxtB5s7fRDKvuG9WKRuFp2yhr2nnRWMTYjYbVympOGiCnww9RHgHQfKEBB1S1C/jar1JtR5PFLqhzo1HWbDvCLHMohbvprRSrRZOKrXlErd2k4tRgK7gS0YJGq3T/7GjgKlVDF7FGZReRO6Ytd1p1rFpNn6jFzyivNkQVRLPrhrm0Slh3djQRLl2FFSfi4TJJ0aJ5QNsWrJSa5xnb5ay0hCqqvgWwsdtqJ5tmqEwpU5+Ir8FnyqnViRUGhp6t8qHGtmHP3GoDm1OYPi5q5quTaHhVWwuxzmX50XAeFOtgW07MEZMZ6uxo8BLrAenjIm8ST/CZT6wS1y0xMyerQToHjXsjyJZEB6PNwhtNIjN23ThaYkJV9sNawav0xk3cOMRpDfEbZJnwIGjiDQhPm8Ty4Wgw85Z5PaMUCWdj7+xoNA0fnEZx2T6F5M/W+Y5CqRl/5BwLUBj6pdlAmBCxZ7CaTle486SXH8MtGsw8pxsdDrjJHu2ik8F4zrejmGEz3I2YL3lbinoCnncG+crW9lKWdho0tXv5fOyZ2OwBkepqsGLCBcf9u0AU41aMmHtGRGw1AQN8UABAqCz2uyvb4FtUhiHe9nHtg9n2ivE00t/gbhX3TR7BOnS1qJ7mru1M6aVdm1z57iURu4f13csIqBHf8WdwwdMBmAe0XnT2RnzfMt9Y3Nr0jOeIk5cIvzW8zk9wvRi5+FgKXqQpo/W0Ug0Z9AsYIbRys4XGPjaaJI7jegQc3/Qd3+95o7CWCoSkut5vuSZMX3q+JprE4WTo9Ro+xj/a9xcL3xvlSznuxMMjl6Fbvp7k9Sz7op6lWaLQLNwyP9DuM0lTrLVYjEXHq4kMCIY7Y0+ieecULteo9XAQLtzuMvtvr/8Llre97gLCXfn2GLAj0nhauB20TuvLxV1VmQWXerwB9UULfG49LRRLX6vOu2HBgY+ewmMmKaPbnrmTSqaMstWyiFmSSWpD3HvkbecvQTxpUSG9mvccx3N6c36H2rHj0S9CGm7KQRqEe4sYygc8wzry9uGXoyHfHsIbGRnfc5mFcjTlsqKRPx9M6Wo6mDuTU9y6+6XpWf6/jA+XfLyKlJSUlJSUlJSUlJSUlJSU1L30fw3PdKTMw6xWAAAAAElFTkSuQmCC;" vertex="1" parent="1">
          <mxGeometry x="59.99999999999999" y="125" width="78.78" height="50" as="geometry" />
        </mxCell>
        <mxCell id="I_d5uRJIazAEXVuabp4f-20" value="" style="shape=image;verticalLabelPosition=bottom;labelBackgroundColor=default;verticalAlign=top;aspect=fixed;imageAspect=0;image=data:image/png,iVBORw0KGgoAAAANSUhEUgAAAOsAAADXCAMAAADMbFYxAAABEVBMVEX////pR4sjHyA+vrA3pZUAAADqVJIruqvR7eoLAAIbFhhYVVYgHB0MAAUXEROlpKToNIN0cnOBf38nJCTc29u3t7cjoI/w8PDL5eESCw3S0dLAwMDySZA4rJuLiori4uIhAAs8OTpfXV6VlJQAHBOtrKzs7OwvLC3Kysqgn5/oOoULHRccHh0iFxq45N4iEhZix7xta2xPTU44NTX3w9bxlrjtcqL98fX62uX1tc3wi7HsaJz86O/4zd3zqsUyJClKJjNgLEB4ME2PNFqoOmfBP3XXRIFxLknuf6q5PXA8GSbAbI0gLithtaiPyL40kIMwe3AsYVkoRkGm08vk9PKQ1c01mIoqU0wmODUua2JdxrrRRWbZAAAIuklEQVR4nO2b+X/TNhiHg1tR7CrOUafBCThNUucqjCXdfdFxjg3G7uv//0MmyXEs+T7RR/A+PwGKzPtY8teS0rZaAAAAAAAAAAAAAAAAAAAAAAAAAAC8D9y6XQe3PpHtkYfurRrofipbIxd1uG4+k22Rjzpcb8uWyEkNrpvPZUvkpLpr9wvZDnmp7Nr9UrZCbqq6btSIYEZFV1UimFHRVZUIZlRz7aoSwYxKrupEMKOKq0IRzKjguvlKdvEFKe+6+Vp27UWpMK6ySy9MaVe1IphR1lWxCGaUdFUtghnlXJWLYEYpV/UimFFuXGVXXY4yrt1vZFddjhKu3W9lF12S4q7d72TXXJbCrmpGMKOoq6IRzCg8rrILrkBBV1UjmFHMVdkIZhRyVTeCGUVcNz/IrrYaBVxVjmBGkXGVXWtVuvcOZJgqHcEMdHl5pT2++f7J02fPX6QJqx3BDKRRHjx4cHVFrG+ePHsR76t4BDM8Vx+ifPngZYyv6hHMEF094avLm6ei7kap76iSiHHd6z67FdhuZJdZC/Gunu7L5/felwhmJLpS3cubV9S2q8RPamWT5kptH7+69z5EMCPdldr++JPsGusiy1V7+Pr8zR+yq6yHbNfj4+Pzn2WXWQtZrhdvj6ns8V3ZhdZAhuvFL/ePGe/D0Ka7Pvp1r0qHVvmnNtX14W8HVWr7u+xiK5Lmil8fC5y/kV1tNdJcH/11HJJVex6nuHoRLHD/RGXZZNdDBHOqR0cnd2RXXJ5EVy6CDxwRTj6SXXJpklzFCA5UVZZNcMVnEdO9qsKyCa6RCGYPq+Ky8a5xEXwUoGhAxbrGRzAvq+SrJ841KYJ5Wdl1lyHGNTmCOf6TXXgJoq5pEcwN7J+yKy9O1DU1gjlZ9cI44nrxNiOX1M2nsGtMBMfMYA/ZtRcl5Pro7/yqyj2youvDf/KrqrekEFzzRbCys1hwzRnBwcCqdQLFu+aO4EBWqSzmXC/+LfKwenwsu/4iBK5FIljNgT24FotgJQfWdy0cwf7AKvTe8V2LRrCKA4vKRvBhYNV5Yj3XRyUiWL2BRaUjWL2BReUj2HdVZgtAXLEWjeCT/K7qnD0R14uyEey7qvLaQdkHpJmokk6oSgT7AytbIieoSgT7roocs11VV1VmElfMpf3AyrbIx3kNqqokcdi1jKoqy4mwaxlVVb7dOa9DVZEH9rwOVUUe2HOe+ydlUeINe5fnTmmU2dcBAAAAAAAAAAAAANAoHdd1R7k+OSCfHDdcTbMgXUfrpMbBeDye+H/ZIR1t301RDYE0rd1JbCQcGk8Nzey9m6IaIt1V03RwVZJ0V4xhDqtJqqsAuKoEuMYBrirxYbuOLMsaBX9c+P/uuy4Gzmw3nZ72B8PwxSYrd96jjaTVFVsn5FJWa999Ot3N5qtILda44/ROafeZM6iuFiHi2qOL4Pm+Mbwe7rfW1wjZBsbYsBHqcT7DHmlBum0apNUwTB31wpddkt3EzutukO66y3tuz4Lu7OJO465j8g/mLmgU1hJ4idqY+x0dG1mHjgvEt7BWexFct29qeOrqyOB+cYu/G6tId33asOuQ/JcYDYNGwVWj9dB7TmDSwUdJT8O0deRj0k8uBVcN0z5G+9CuoWBkR2J3ekvsWbOuO1IDGnONoqtmIjRbj63JZNRZ6vTvwY7WmPXn7nhlTRbD4WK1RaJLn8mR7tsO+Yg17tNxxPahfXLGuo+87uMdvTjKd4hQ0rVD/mr3+EbR1ehxieIwHW6eCrik1QimIRtXtA26LzCRRdGA8j9PZEk81IrgOqE/+H0mNKat/bekfj3xUGNG7k0wxenzagjRPKL3NdnmjDxMRj6HvAiuS3qrLaExzXVIh27XSoCmXDALqeuZ+IEpCbvrxMLmNn+raoF37bfJ5ediY+qejk5rlHRlOkmCRz/GldkkFsZu1SSxuQyc6yoyTFmuaz2lHjrq6LAkiHFNt6FTnJ9jNcC56jg8a7Jc6d1JjJdMVwulRW2jrjOTr81vTHWl01RPWs1lui6ESR6mIVf2FqTvCHsbaUx1pTqxQTycjMZrO8O1hSI399B9NXDsJlzxdEfWouTRi2R85nkTvT98mA1Xa2e7w2zpY2s5XIU1cWsxXve3OzvoXrurhrG3Fo08erlcgzU6Xdi3yeo9WNkWcl0v6eLfwFz3+l194lTyu06WbBWLTdtb17ZzuR4uv9J1ttr2V8VmM65s0ugxA1vEdUFNDYR22/7aXZFtb2Y2CZdn+xzW3VkPaHerkWzynrgx+8XA5GKynleyCtLMa+5mFXOlqu1Tzq3xd07bCTfmzeGRuNRvFXSlbwFTeAs06jpk25ZJqDH7/eqlC1vwCQuDQq7iRoHS7LrJjQxNgXUTKZbbjVIKuZLsNk6FxmZdWztD2F7nWA/bh5kwxeEtTyHX6P6uYdcFm8VDoTHVdRfsc5aRgSnsKmZFw66tNU2ImdCY5krvjS9IxhWLh2FFXc13Oq6t1jUWluMZrj0zFC5Ca9HnNXSrGnelL3BsxhUT49rhpzzLYWHTMhQ2QXlyWHgHNO7actp8SKS5WjO25PI/S0vDOHjWRw5dFgePcNb7VRfPCVa9tpZ6HFWGkGtL44+cwq74uufM167bmfc0tmDl5sCSnYGuRxNrNJjPyD6FLeHt0/07N3PdRNfjS9eaWGQ7t9ufH2uoV+fIhl3Z+FwHjaGzcLKwb+u6bpvYO+6dCB017K3bbXaUzU7yyRI3l2sn6K7T7thG3v9Q44G4oEPp0QdvneDKQ6qZ8Ssdl/v+ApsI9VfsnH8fOX07Y5/T577kIJc252O2ha3zq0F6I9eRf9mPl/Dd1Y41kDGlkAEw+qH5NZoifd+m9VlMzcnnkfcU0u+u9Jj/O7jP4zPWnQ7ttUNn/rBPu9d8Hp6XBXmW3PXccRyya4s775+4c9bGRZQ7Tzwsj2Cx7oNR0H3VcdT+EUgAAAAAAAAAAAAAAAAAAAAAAADgQ+N/OU7lOUlRnCkAAAAASUVORK5CYII=;" vertex="1" parent="1">
          <mxGeometry x="140" y="125" width="54.65" height="50" as="geometry" />
        </mxCell>
        <mxCell id="I_d5uRJIazAEXVuabp4f-41" value="" style="edgeStyle=orthogonalEdgeStyle;rounded=0;orthogonalLoop=1;jettySize=auto;html=1;dashed=1;" edge="1" parent="1" source="I_d5uRJIazAEXVuabp4f-21" target="I_d5uRJIazAEXVuabp4f-6">
          <mxGeometry relative="1" as="geometry" />
        </mxCell>
        <mxCell id="I_d5uRJIazAEXVuabp4f-42" value="docker-compose up" style="edgeLabel;html=1;align=center;verticalAlign=middle;resizable=0;points=[];" vertex="1" connectable="0" parent="I_d5uRJIazAEXVuabp4f-41">
          <mxGeometry x="-0.1802" y="-1" relative="1" as="geometry">
            <mxPoint as="offset" />
          </mxGeometry>
        </mxCell>
        <mxCell id="I_d5uRJIazAEXVuabp4f-21" value="" style="shape=image;verticalLabelPosition=bottom;labelBackgroundColor=default;verticalAlign=top;aspect=fixed;imageAspect=0;image=data:image/png,iVBORw0KGgoAAAANSUhEUgAAAOEAAADhCAMAAAAJbSJIAAAA21BMVEX////+/v4AbbgAb7kAcLkAarcAbLgAYbMAXLEAZrUAX7L5/P4AWrAAXbEAY7QAcbm/0+cAVa30+fxhnc1Sj8iItNs6e73r8/nX5/QAV6671eqYtdkAU63Q4PAZZLPg6/WZweE9brewzeZ7r9lNicUAS6kpdrw6fL6kxuJ3n85+p9LH2etIfMA7brpZkshrms0ASamAo9KOttdtlMteiMRVfsAAQafN5PKRrdWgv+JJh8JypdECeL1Adr1nj8i6zeQzisVRmM2vxuOCuN8AK56dyuev0+qJptF5l8rfqNtzAAAbxUlEQVR4nO19CWPiNtC270O2BTghNpdNWAKEc3NsE5KSvEu/r9n//4vekXwfGJsA2/bNtJso8liaRxrNaGRbYpgv+qIv+qIv+qIv+qIv+qIvOhOxLMP6qcIEm0zA72zCZw8yGKYwka4kj6sUU1hfRshAQLZ04nhM7PHrzSny+OKUl7lakYcKUEmc8tzH7ZVq3HkI/9t0Gr0Kyy5IHMJdrUgvUVmvjiYOc6oiP4PwqH14AoQ7+vBkNf0uhLnXqnj84loO8viFXOU8fpjINKH/1wkU9B9S5PHFKS/zibhPjvC3t0cewv82nVCvCk1oXIAyiQpMqcRehsrCFzP5xs5nYv+JCD/XDIzVozQDIr9tjTknwiPXlKuc7eGPeUQ/Hm2GOUO97BE9fgAlhJRKDMQGMgwDIfLTaFw/FbPHE/8Sj98eIT4ggTfG9tEFSIvyGxByAfGccvUvRMgWcx+CcE+RZRAy56MUQk9LT0r79aqU8u3iTiXyEB7RhucKWUnmsjX9LoS54h6hD/9FCD9b02FaenSPn8PNRIndHj/GlCwgt5niRSYSOyxNiis3kcpid3KzCUny0ZdV0P3GOp2gCCUKEH4aJ/CHKXGPKXwp7oH+R6PR6BJqtBp/OE+nbuLjI2SLud31cxOoA3TfbD53rM8XWQZh9glabhPubY9SlCczs7PsUvUWcefZloMtpzfETdPUyN8aXNG0MIsYJI1a7/T9IXKG2Z2VvlYywZbX0DDB7iqOYXv9yWAw6d/f09/rHsu4E0gNJvde1npmMtZgTXL6QCRnYDJ5LVutrXc1eoiwmCE3kY+wgxaSqIoi/bd4XJnMhL8WRYn8SXJ+LJ+YwQh4gAsIsq6v/2FzmmKE2nNDxjL2SXaWJrPFCIdZsvPiQgSs4JBkfXN6hJFDLxHnZ8plY4MG+lCWaoIgQGgrCDVOedWYAY8FmkOyOB0wt0eyIPhMNYiA3aCKvfWymcQOqPm25RNNFDF1kBjNV0SZIOTkMIeTjJVZOT4ED7o2S8i2E8k+4fONzI4EIOQjhMhDyEcQlUMQ2tdyxy0pQB7T6RBKGYTSIQi1SwUpK/twKSsh3Med04fSvj5091TXdvCfanc++xzCIxGb7EMjg1BfWnStLSe22EXuwgAzxenGWjtYrCr9V6iqjBZHyInGhZlAyHPGT7taBAxFOjwtAF1PtB1MJfxhNYS7xUn0oSAarya1pUGWICleH4Y5vFSMEMzM0KDcoBGbweEID+jMnQjBnngEvuGCWhrJz4GRaSy9cehnEdtTjJDdOmLQYMhxD0P4OY+faHDtWcdqRM5KYyaqHM+5tJiBgEgSY5XwGpvYKka2Onel8H6HC/zNm7UHYQGC4pYpy8R2ugbGSKaEURfG4QS3yKwtyLkkI7NL/kbkfyx3+UJvMbsKBy0vcDfNMq4/2/IFFaQTWVWNCqBN/l6P0bsNsUU9nvXe0xgrmVM3c0vyKxlIOLLENXnRPkTKzyA8IdFKNBiGMWfDt5618Fo1KQ9EaFqWGSSsMEFTGvx2g4R3TfNzaFaYYEMmLUiwYSXWVJa4WCei0SAhwIn7QZtcvH7z6PX12wVMrNg25LyGmSuYh9hN+NPLgZ/LAehtc/UtolXTYqzJKl7Q1A2r6L1Evob0oSo3DxC0bP+FicC/W3e64zgy/MPYwc5bk2WfSQ52/B+P4Bsm6sJnInk/XsCWcmEOMC2cJ6Y9vPZu8rL1dmhdey9IiiHkeLxyC1cEjurxGfOuRQN16gdEeXGvsR3fW4j0n0NifBWpERci3oJHMf+hbFymPY7nIKcd2p3ZOKGlnIDndT869BaAyiI8oDMJwqnsBbYkmq2J8oRGwIJPYNx1OqfBJE1zarxyYXsRcJhDIuDZC/KjZnIBjyKEdQknEPKq2DfdWb0NNHPNUKY9AKp4/Pgb8OaHEo93nb4/pwkomHnHZ6FLlyBMzEtdpjdEEQ5e5iItrQtJhJwkvtz9Gl+NRqOrt9uPzpr6mozHz3P9uUq9Swn8LPNDj+mP6kxSsUUQAccE1Gn0lERoA0IljvB6FtaRsjRwlVcVg86SsIwgNf7YuoVCBnSQt4A+TCHcF+PviIB7QyMXIQtXUgi9Jx7kJQf4IYkYG+ItzCJO5A/TCNeA0CiM8TkST1VBaK9QGmGCeIHH+vzdPBPCSQqhKH/LrNNURGh2nOQ4zGLked3Zasw+hAdRGmHK0vgxfkJLvegpMQ4B4RPEgDGEfDuqYyCqxQjhBuPHnmWCSt4ilgX+EJref/UHwjcfYfAyUIBQlCMeDvnxYZgjebbU4KLbcMyWgkNE+zpRdKZWMZJKbjDhDxPeAvqQTXoLEZEIOBYc8GIQ48f60POHMRjEW4T6FYsPd5HyFszydol7MELrruuHghD6YTqnee4islTv5eAFmbXJhuznQDSIXp78Vf0gh8xpBmMU8shYic1pGPZ9UaimvKDiTrBEVYAwkLmKxydzGoOsWfC0kQVxMWE9fyhRbZM4yfFW9TnfvEM/Id/jS8TYw6yHkxDVUkxyOPKeG8dhaRZpKYkuiqwpL7WWbhmPv8fRpxI+aXYy3rUyETCoTyre7UHOLJEzMxmzl4yJrVgl5r0sFiCsGTBRTQl5BI9/NoIpaGcs7jY1fA3La3aHlAf7Q5jUW7btaoQSCdZP2LZZnKCpZMKMJ2yLpiy39zxe6HhnD4KWq92VmyvlwQihWfvD5UUu/czP3sFUkKC0HI9EpaGrwk5TysO00Hi1cwDke/ydtiWVZf24QQohXdfhpxEklCihk4RhkIs0peiGoXuZ0W3kGvml+1mQ8HjobfADTLBELU8+POp7nPscBDG7w2SySjgJd6xIoihK4qlJ8nCk+83Pgimhgi7dDIBcJNX8YW8sC/yZKKfjKHgMWuRsVv465P4uqoRQe4cIfadtOzEJEkwLHFXlRuO77Sz0KWUQlldXbbD4fQg5vOx01tvtoO3BqyB3HuV4TpKoX/8uhDyHxZlmaiWETGWVVVDvlvZmt4M6NcKbppaSfo+4B/nD+gb/nj7kOfX7viCCOYbHt6/Q7+lD8O//sy+IKEBYfuZtjY3fg7AmqxbDVFDOWFbOfGY3uVfot2gpL+o/k68qsLnJPCpjbKP2sF6M/eKcAqE+t4t0q0juigh/xpYuzghQbEzLP//9FELzQimKSE+GUPkxYzN4yithBTKbinp+hBBHdA5+YSiFdV8TaRP1/C6f51v0U9PSPi0hd+lbfE/Tm5/fIfJYnOS6uvL+sMK97oOyX6QjA+SMZ7OalLsR7h/I5rR1bmP6p3HVzhe+PMIKZK7R3kcJRyVekJXJQaIGVMlbgKkZzM9ravjaTUfbo1vFAKohZBnrFu0X63gkcM583+tsR0bIdtAZPSJfUxvx14NP7/GBBiOndjaENdxdHyBjlqo0EajpufoQrIw+DTbOKG1LU3KXviWq4B6fS00FtXtLB2ElhJ/x+B7309A4k5pKDfL4s5qh2IOw1EBm+ueJLwTOeItNRz/VhxXp6Uo5QyfyAroeHCxjjCp5Cz81uTkDQA5t7q30yswZ/CFNkPWoky/XGJu1xeQ18ckRklT7+4nNKS923+ohwDN7fEorXT1hJ/I1+ebxuJuelGyigBvCxNHeF10+AVCQW3d2JFr1YZQQt8q9bHTvQD3VIxpoOLk1TSz/lvIWu5iSgMu3jvnaFU/jMsg7pB0zdPTV+/DzHt9LmHc34s7n7J8gCCY29ZLdU6EP9y2M55H71hWPrai8IBn6rbW/8ipUSQli3AxjP+jqcRVV4GTlemsWyFbWJn7W4zPeKLFXjWOORYEXFfV5xoRDsDrC43l8/zb74bskHElTiYI2HrdWsfAHISx4WyhL4RWvEPfuO979Xk8FEgRRafzo7PLypRDG2Zn0tWxWTgE59zHW1GmIn/X9MMcVldb82X/rvgymEoaissfPvQZOYzLXMfcJTSVvnqoIbehXBRUdQQVvUdHIJLLsy5b6KYiirKsr97AmPqXHjyW2112DO2Q0SjwvGg1jtGUzkhy/D1OdWc3vWNt5S8FE4UrCpN+8kNfvFDRu2pEDLDeyyo7DnSY0vvf5fibKwrrbuYpkNed9wnyEnIiR4fDjaTvCVwZTtS7wpKys5juK622fx+TzbFHid/oP8gkegBMdWUbq1Wo9eIpP0I6AMN8fHjyQ0w1mztbPb6IB+ko+qfQ+EvE/KiTvUpLNlbAjGy1dFod3nUnd3VXS70RYxE1B2oP1x9sGey8K6zqipOutVotkICSOHz462/eeFT2WPzlC/ypzLNJMdzboN6e3w+FyuKE0XC6Hb6vX6fR+Mui5lharjE38Oh19tonidov80DTTNF3Xcmf0AwrbslzLInu2aQlEbJkiQ6Z93OwO7tLCJ1phP1MB5Y/q49SbU2S2lIJEpQoKgVVDWKoPCxFW8zLH6+jz9eF/mw5v0IJEKe5DijxEt06IsJTOVxsYJ0d41GY4F8L/G/TZJkokPmXaT1BkdeFPatpPUGS2lN2Jcu1xgj6sxn0wQoY1jydOtZJKtWwhwnJkd2ZVb9lNrPvunsnOlWwiCOJXi8f3+HbY2ftTBRUwsbNH9Fhn95dUvsidAMohZLTeUBd1lTz3OoY4vXlX7M57p0HIZBCW0G7GvJecP0W0LGlu9ojDNhtqTTXu2ZMgPHAsTjgsiOjycx8FBMR+a4mCqtyfaSSWa6LByBFE4zK9oc+OxB6NYJuKKmCjzzJ7Syoyk6WYSldQDWGxOD5CdH9+hPv6EP3nEZbpQ7Y0QuN8CMvQQKCW5ji2gW3qgFDun8XSxDuroNW1ySiBsLjX93sLghD3z+ItSiK0+rsRsjty/g0IQziMmUXoMzGZnJzKY0yHIIyoDFMaYWZlPX9wDHjMH8PjxxDKKYTVy6nAntMgLAXjHZ/CEISO34dxK+W3VbDVAZvViKAg1jTDSwUeP3iamLjfS8X38/SSJqOFX7D7J79kmVIVxLLdSfPi5+XPbxPvGV+OtwCyJ38Bz2uzvtNbgBzt/ith6vdS3iLHH7rLeZ9N5MD9g28gyMW3fmbHge14GAR09j2t435rpZlSf4U13S9HDtlrBzni6Cc5YGLCpT0+W7942TgyZeLHF5PcHRrNwXK8kBVdN2R18zJ10wgTAljNDWos1vGPDc3mxXhBBNENdTS8TxwD0Z839A35rq3XHG4cpEMlzmJ0uS3Rh9b2DbV0b69xLCsN5WGrzcY42YduZ27ohs+E9IZzF3sfxpdCm31cN3Qk001osdJq/Vi7dOhThEq8D4G5t9JbqqhLg1AS8/2Xo+sIk/sx1nXlkd7vS3mNRLF7x1ideUtXMHkui1VZV+YDLYMwaWbM3p3ewJL/+FaoCRLuOuv+WOX9cUiYtPpjV1c5+oCXMqrOzXwbvvfqyex2NjeGyPt7ztaAqXHzRtuBWhol9Pi0xdbzG7Um1CDkCO9/dm5kla/x3pktAqc2ug/hi2/2AtjF5eC2pRBBvFqAqfXmBiwJvYwSk3ED0yfTItn9VyKv1AmqwQkSH3kLdis2JO/hNelD8ki7JhnGnRVvPfeWvIUi+EyAlONrYndTZ32EKGZLtfqvhiIJ5DOSUbA1pPvQ8N4pk+hWxDzd/6M7f/cv29fkdXoJ6yppAq8OEeSQf/QSupmxfr0R2SZc4LCugHYZuqKCaAJAhUJChH1FIU/pRZnoqay0DLIrFy+2vM+UvILcW8gVoOFhoBL10VXSJlwXmjjpLYi0a75Bd5WEFtj6X1m4D+QFVmhdhegp0luYqwFGOWgBd0O+ZhWhD0AQBHqqYhg2qqQ8uAkDlkZoP+qk11RZfXteTybrj0elRTZ8JVtThQjbDQTFCnJjc0uYOndzXSHi060PAoS3DsCGuvH8rjMBpgeHdMmfdD/eyON7w/XRIdtmCpLS/fXuf6xmrchLyLyoKI8fcP/6+cFp0Xd2sOP1kU0RchJ0gNwCQUgdz48IPZISYnqZQmhNb8jWrsgZNV1/k7jOWPdfBg4QPl3r5IsS7KzqFmEyzd50A1E7aIjcD4pst0DXeVXZ/Az2mJssEeBQNrPEnIYxZ81rXSXjWdU3Uyvo1teuCl2GW+PnnkkrIfaP7gxqzKm58hGSXUEWviAg7brTCw/CznpuoHuEazwvq9PoTR7NGsr0le5gTuOuGjUYXo68tcL7THtMIbbm/n2ug8g7sa1ltA+iZnVUQ+42zcCWegjf5wqiW3uprZdZWGt7Idc4QdQv3ZggHRlajRNu6KfPLh2HZOSK72YoiJZe1U399TQ0oHOQM4h2uyEKc0m/VuM9b8EMHEwGNOqYCabhDZgVVbmgWdatDlKrNx9WbEdKhu0tReLuPIQ68YfWrYPJvpg1sdF9tqLGHiuiIEjd+GcJxMBBY3CCQociIBTIW0gNeoJExJTGlPxraoC6SGidOu/NumyQQe/1obXSQX1k9Z1JaoP11oX6sEz7bLaQobWNWytWeTQB9RBiGJCDkSKTIc0bN6v4GSR1MojB20WfJXi/B44MRqHRCfuQb81tJiFJYR+6b6AvnPxoMWzyFrA/UtCHExEJnEQO70mVtgW3AZaF9Ay7JlsvIP+7gmQlwZxGFu+tNQJ7CcMVd7032AMmbUl03PA+sIwbCusZOrGmXD75fciLsidIMcJwJjIYQReqiwETbznqrra0TamluSdv6OEfbmayZ00ReDT0QnYyXenQCqiZ2og6QgimReRflje6UOM5SZQ/Zgkma44kXhW3TIbcH1jisdoPtBQ9uExGkngiEbxo5BNfSR7nhEj2m8x7CLUpJts6T80s01YCvZHJIVVtsmMW3mQedARNSRCCQdPFGrHS8tU6VVpvIcJAGE/cJ9u1bbsHBAnX7tlPlwQ7bnoeH0Tau69LvGm1JlIFFV/kXDI/DIlGT6y9AjujLuo5TL1LGSziokciEUgpw9jnWVmE0TuLyjj5ij7M1x3yhubocnW5XK1Wy5eXFy9xuVyOALuEpxrx+KDe/ITNSpKMgOMw7sCAydIkews590ClCLX2EMOEZxOLUoIEPVOEF506iUQAgfKaw5RACE2l0h8rK4mwL5O9hjksy4YsywjJ5D+acKhvxmDCKEJ52MucDpDS2YSEK0MU0GjGZG5hmLUIIweDls4owqtMHEZaaIoJQjDlfRUQRCeJ7UAI3SQjb+KzsuII2QmiCCVJEun/MKXyfkp0ZxUBAzA6L5VXFpMeebusDUP8gMHV0FWPyaGJiEH9L3yE8jzv4yQTTI3XhxQhmrA5TBFC0DG0/MlDhAD2vxkfiR5C73Vp7xdP4QZ/CxjsC/EWklzuK6kAq3kHfSiT47+yzdAHLVWdb2BEIFCU8NzKYdI6MnEX0IcDoqVG08wfHdRbQFDU+mOqaZ3vYBIF7KxjUR07oKcsSNGZnwlS5e7Us6U+wtBJ7POH2rNBgppXJqtX2jMMUdV5pVZV4MRF3sZN7grchUgmxmQ/fUm/dAsQgnRD15sJk2BNX0SBb9CHgiD6h30BxRLY8T0++KZbi0lVUoiQ7FsioXGe8A/ggvFiQjoakc23mlqWaSBhMHMb4i1GBoyRzY5TC/05DZmlA1l3EEoDxHmdDZl6EMHx6qhvP1EiW0Q/PfW8FCRsLUAoV0NIPT6vXtczfahNYGCBApOJVQfDaEdDN8NkPusiNNDQJJ+ZgMfnnE6Bx6ezNmol7Add5GpS128QinouSwLO8/gRUS3N6cOE7qXJepDJtPQtM3rtN53sSDWmPTWSwQg6k4zLn80xuRtcFaOtoQ95dLXj3YZ4jA/U+yGTj6e60ffb2hIQcsqDvctWMZ7Hl4gt3UNx+DDzhtEGPnubPP0LxgpMdmrYoAdKwYysJvF0zplgslctiZhHaorbZJanyv7JDFGDmjTgSsf47QUmvqH15p8zR2bYYg28U3pHcsaM2pUiRAlvsc/jk6rGikAG0CBxYKQ5EaFLao0rL5SZKMQMoLcZGy9udumAIov6kPJYqy6Jf9GzFS+IcbedmZlGSADJConnu49BAKyNEDljxQjv94aRvd2GR3qBxxeKETIZhJDoKGTFRVnEJ4rm1CERDtb7Xu3uslUjM8J5PaZD1rBBlnd0secx2TqxkFhJ+Kv3ueNck0NTCEInvhLVVMBC11RlGaxI/u0gqAQ78fmvNpgvlFCVyZxGkvf3YYpgwEFIwsvOMJh4MoM5wmSh5vtdUNlTC1OIi1XQoOb0WhFrEMZ2X/0c9hv4VpBZ3/SDmY27dCCS1sOVqHAckgI6XbJkJiqrgPvyRoIMVZ6He5n1htDSYnfsi2Ef4PEJ9btkGygYQtfDv/7+++/+t6FEDrohR4ZGc532/1PpWRRo8/Ovv9t/91/HDtkBrMb9celvwgl4FEOoceD1xPHr//+7PfhrOUcq2dqKrkSlnwGDIf5O17KMAJA1/M7BVEDSFy/k/r//+rkxMAlIsB/2pzx+iKTIW9Ab298dvkYOM9J17JC1cmLnalJLjqIJaIcbvUZWEw2duGGkKyo5uEP9fmtGPBb/nSPdgg2yLIl13RDJItcNiSyzzy3IB/5k8RE5g6CJ3r6ThQXJW9Z0FHp/jVckM0JY1eP7o57oEi/A1AwZBjS7QCO5t3pi6WbiNMhKMfQ1MhBW6UFruHEbbEdCC7LfGuTzUqGmylAQJrGgIDa8FWHq8ZOr+tZtC6Z6te74ya+ErghD63IqMhQDk/VUQeqSgyzZgxF6tw7eDFkMj+8h50hg49b2L/pM7GBjqLROn0tSjc002tWJlujeLUgLhWcD8aKqPNb9VX0Yos3ksyf3oSVCc+jr8P5bWRalQAyydo6VxzbrVwLjUOA9f1je4/tkP290/8Q+8kRFlx87bpqHna02uhyc+wdM+GEbrV/5imZt31TdK0WE/2R9c+e9y9Z3HEmOWxpKvceWJDpitE2i23lEOiZfvankHwru9y6CE5UaD2U8fpgIB6NWf367Rt5hE8bmVyf+ICBksrYfj453goVuzO862Q3FiRjrX3PZPwhDfPx4D1ZTfzUa3V92UgDyxmK3q4C6RMh7nV8bwztAQ1m8Pdej7zFJnNDoLrZMFY8fGjbA6L53poSanbrFZp5kekymPXmmTM/rGXkGm8ekWbM15Zl2Bna4cMv2Pm6nvWjIBty9D9pSIWZ6f8e/f+tqTPyaub67e9eYbBcVevyoSo0em2rRh9O5AzlkMi1TY5JMsQoYNihJC1qG/IabEiX5CdNKrJBSCb3bk5XQhEbOZ81RwkKP/1+l3eiL7HDWcLEFDZpfSal6dxVZSsodUuQnyotTWvjTF3n8Cv4lCEv14dk6+gDuSKSzUmjodyZK3F291k8O5FLtWJAoxVS2yFxJKmvK0cQ5GcLUtcPHwj8WYboPc/by+JxJKQusGsJDuNlsdWXlLqXF1VT9ZEUWMCQTbJkKQqZq3CctsnTrlK7gAOFPWuSJEP7ORksJEPwZYd2bOJ4lOdDcVCvxBODYqjIdmzsv64u+6Iu+6Iu+6Iu+6Iu+6ItOS/8LSUZqspbzjd4AAAAASUVORK5CYII=;" vertex="1" parent="1">
          <mxGeometry x="369.74" y="410" width="94.51" height="94.51" as="geometry" />
        </mxCell>
        <mxCell id="I_d5uRJIazAEXVuabp4f-49" style="edgeStyle=orthogonalEdgeStyle;rounded=0;orthogonalLoop=1;jettySize=auto;html=1;entryX=0.996;entryY=0.622;entryDx=0;entryDy=0;entryPerimeter=0;" edge="1" parent="1" source="I_d5uRJIazAEXVuabp4f-6" target="I_d5uRJIazAEXVuabp4f-15">
          <mxGeometry relative="1" as="geometry" />
        </mxCell>
      </root>
    </mxGraphModel>
  </diagram>
</mxfile>
